include "huge_driver/include/hUGE.inc"

SECTION "dead_theme Song Data", ROMX[$4000], BANK[4]

dead_theme::
db 10
dw dead_theme_order_cnt
dw dead_theme_order1, dead_theme_order2, dead_theme_order3, dead_theme_order4
dw dead_theme_duty_instruments, dead_theme_wave_instruments, dead_theme_noise_instruments
dw dead_theme_routines
dw dead_theme_waves

dead_theme_order_cnt: db 30
dead_theme_order1: dw dead_theme_P20,dead_theme_P0,dead_theme_P24,dead_theme_P8,dead_theme_P12,dead_theme_P16,dead_theme_P15,dead_theme_P19,dead_theme_P28,dead_theme_P24,dead_theme_P31,dead_theme_P32,dead_theme_P35,dead_theme_P38,dead_theme_P41
dead_theme_order2: dw dead_theme_P21,dead_theme_P1,dead_theme_P25,dead_theme_P9,dead_theme_P13,dead_theme_P17,dead_theme_P7,dead_theme_P23,dead_theme_P29,dead_theme_P25,dead_theme_P9,dead_theme_P33,dead_theme_P36,dead_theme_P39,dead_theme_P42
dead_theme_order3: dw dead_theme_P22,dead_theme_P2,dead_theme_P26,dead_theme_P10,dead_theme_P14,dead_theme_P18,dead_theme_P11,dead_theme_P27,dead_theme_P30,dead_theme_P26,dead_theme_P10,dead_theme_P34,dead_theme_P37,dead_theme_P40,dead_theme_P43
dead_theme_order4: dw dead_theme_P3,dead_theme_P3,dead_theme_P3,dead_theme_P3,dead_theme_P3,dead_theme_P3,dead_theme_P3,dead_theme_P3,dead_theme_P3,dead_theme_P3,dead_theme_P3,dead_theme_P3,dead_theme_P3,dead_theme_P3,dead_theme_P44

dead_theme_P0:
 dn F_3,4,$F05
 dn ___,0,$000
 dn ___,0,$000
 dn ___,0,$000
 dn ___,0,$F0A
 dn ___,0,$000
 dn C#3,4,$000
 dn ___,0,$000
 dn ___,0,$000
 dn C#3,3,$000
 dn C_3,4,$000
 dn ___,0,$000
 dn ___,0,$000
 dn ___,0,$000
 dn ___,0,$000
 dn ___,0,$000
 dn G_3,4,$000
 dn A#3,4,$000
 dn F_3,4,$000
 dn ___,0,$000
 dn G#3,4,$000
 dn G#3,2,$000
 dn G_3,4,$000
 dn ___,0,$000
 dn ___,0,$000
 dn D#5,3,$000
 dn C_3,4,$000
 dn ___,0,$000
 dn ___,0,$000
 dn ___,0,$000
 dn ___,0,$000
 dn ___,0,$000
 dn ___,0,$000
 dn ___,0,$B00
 dn ___,0,$000
 dn ___,0,$000
 dn ___,0,$000
 dn ___,0,$000
 dn ___,0,$000
 dn ___,0,$000
 dn ___,0,$000
 dn ___,0,$000
 dn ___,0,$000
 dn ___,0,$000
 dn ___,0,$000
 dn ___,0,$000
 dn ___,0,$000
 dn ___,0,$000
 dn ___,0,$000
 dn ___,0,$000
 dn ___,0,$000
 dn ___,0,$000
 dn ___,0,$000
 dn ___,0,$000
 dn ___,0,$000
 dn ___,0,$000
 dn ___,0,$000
 dn ___,0,$000
 dn ___,0,$000
 dn ___,0,$000
 dn ___,0,$000
 dn ___,0,$000
 dn ___,0,$000
 dn ___,0,$000

dead_theme_P1:
 dn F_4,1,$000
 dn ___,0,$000
 dn ___,0,$000
 dn ___,0,$000
 dn ___,0,$000
 dn F_4,3,$000
 dn F_4,1,$000
 dn ___,0,$000
 dn ___,0,$000
 dn F_4,3,$000
 dn E_4,1,$000
 dn ___,0,$000
 dn ___,0,$000
 dn E_4,3,$000
 dn C_5,3,$000
 dn ___,0,$000
 dn E_4,1,$000
 dn E_4,2,$000
 dn F_4,1,$000
 dn ___,0,$000
 dn ___,0,$000
 dn F_4,3,$000
 dn C_4,1,$000
 dn ___,0,$000
 dn A#3,1,$000
 dn A#3,2,$000
 dn E_4,1,$000
 dn ___,0,$000
 dn ___,0,$000
 dn E_4,3,$000
 dn C_5,3,$000
 dn ___,0,$4A1
 dn ___,0,$210
 dn ___,0,$210
 dn ___,0,$000
 dn ___,0,$000
 dn ___,0,$000
 dn ___,0,$000
 dn ___,0,$000
 dn ___,0,$000
 dn ___,0,$000
 dn ___,0,$000
 dn ___,0,$000
 dn ___,0,$000
 dn ___,0,$000
 dn ___,0,$000
 dn ___,0,$000
 dn ___,0,$000
 dn ___,0,$000
 dn ___,0,$000
 dn ___,0,$000
 dn ___,0,$000
 dn ___,0,$000
 dn ___,0,$000
 dn ___,0,$000
 dn ___,0,$000
 dn ___,0,$000
 dn ___,0,$000
 dn ___,0,$000
 dn ___,0,$000
 dn ___,0,$000
 dn ___,0,$000
 dn ___,0,$000
 dn ___,0,$000

dead_theme_P2:
 dn G#5,1,$000
 dn ___,0,$000
 dn ___,0,$000
 dn ___,0,$000
 dn C_6,1,$000
 dn C#6,1,$000
 dn A#5,1,$000
 dn ___,0,$000
 dn G_5,1,$000
 dn ___,0,$000
 dn C_6,1,$000
 dn ___,0,$4A1
 dn ___,0,$4A1
 dn ___,0,$4A1
 dn ___,0,$C00
 dn ___,0,$000
 dn A#5,1,$000
 dn E_6,1,$000
 dn F_6,1,$000
 dn E_6,2,$000
 dn C_6,1,$000
 dn F_6,2,$000
 dn D#6,1,$000
 dn C_6,2,$000
 dn D_6,1,$000
 dn D#6,2,$000
 dn C_6,1,$000
 dn ___,0,$000
 dn ___,0,$000
 dn ___,0,$000
 dn ___,0,$C00
 dn ___,0,$000
 dn G#6,7,$000
 dn G_6,7,$366
 dn ___,0,$000
 dn ___,0,$000
 dn ___,0,$000
 dn ___,0,$000
 dn ___,0,$000
 dn ___,0,$000
 dn ___,0,$000
 dn ___,0,$000
 dn ___,0,$000
 dn ___,0,$000
 dn ___,0,$000
 dn ___,0,$000
 dn ___,0,$000
 dn ___,0,$000
 dn ___,0,$000
 dn ___,0,$000
 dn ___,0,$000
 dn ___,0,$000
 dn ___,0,$000
 dn ___,0,$000
 dn ___,0,$000
 dn ___,0,$000
 dn ___,0,$000
 dn ___,0,$000
 dn ___,0,$000
 dn ___,0,$000
 dn ___,0,$000
 dn ___,0,$000
 dn ___,0,$000
 dn ___,0,$000

dead_theme_P3:
 dn ___,0,$000
 dn ___,0,$000
 dn ___,0,$000
 dn ___,0,$000
 dn ___,0,$000
 dn ___,0,$000
 dn ___,0,$000
 dn ___,0,$000
 dn ___,0,$000
 dn ___,0,$000
 dn ___,0,$000
 dn ___,0,$000
 dn ___,0,$000
 dn ___,0,$000
 dn ___,0,$000
 dn ___,0,$000
 dn ___,0,$000
 dn ___,0,$000
 dn ___,0,$000
 dn ___,0,$000
 dn ___,0,$000
 dn ___,0,$000
 dn ___,0,$000
 dn ___,0,$000
 dn ___,0,$000
 dn ___,0,$000
 dn ___,0,$000
 dn ___,0,$000
 dn ___,0,$000
 dn ___,0,$000
 dn ___,0,$000
 dn ___,0,$000
 dn ___,0,$000
 dn ___,0,$000
 dn ___,0,$000
 dn ___,0,$000
 dn ___,0,$000
 dn ___,0,$000
 dn ___,0,$000
 dn ___,0,$000
 dn ___,0,$000
 dn ___,0,$000
 dn ___,0,$000
 dn ___,0,$000
 dn ___,0,$000
 dn ___,0,$000
 dn ___,0,$000
 dn ___,0,$000
 dn ___,0,$000
 dn ___,0,$000
 dn ___,0,$000
 dn ___,0,$000
 dn ___,0,$000
 dn ___,0,$000
 dn ___,0,$000
 dn ___,0,$000
 dn ___,0,$000
 dn ___,0,$000
 dn ___,0,$000
 dn ___,0,$000
 dn ___,0,$000
 dn ___,0,$000
 dn ___,0,$000
 dn ___,0,$000

dead_theme_P7:
 dn F_4,5,$F0A
 dn ___,0,$000
 dn F_4,5,$000
 dn E_4,5,$000
 dn F_4,5,$000
 dn E_4,5,$000
 dn D_4,5,$000
 dn E_4,5,$000
 dn F_4,5,$000
 dn ___,0,$000
 dn A_4,5,$000
 dn G_4,5,$000
 dn A_4,5,$000
 dn G_4,5,$000
 dn A#4,5,$000
 dn A_4,5,$000
 dn F_4,5,$000
 dn ___,0,$000
 dn F_4,5,$000
 dn E_4,5,$000
 dn F_4,5,$000
 dn E_4,5,$000
 dn D_4,5,$000
 dn E_4,5,$000
 dn F_4,5,$000
 dn ___,0,$000
 dn C_5,5,$000
 dn A#4,5,$000
 dn A_4,5,$000
 dn G_4,5,$000
 dn C_5,5,$000
 dn A#4,5,$000
 dn D_5,5,$000
 dn ___,0,$000
 dn D_5,5,$000
 dn A_4,5,$000
 dn A#4,5,$000
 dn ___,0,$000
 dn D_5,5,$000
 dn ___,0,$000
 dn E_5,5,$000
 dn ___,0,$000
 dn A#4,5,$000
 dn G_4,5,$000
 dn C_5,5,$000
 dn ___,0,$000
 dn ___,0,$000
 dn A#5,3,$000
 dn D_5,5,$000
 dn ___,0,$000
 dn ___,0,$000
 dn A_4,5,$000
 dn A#4,5,$000
 dn ___,0,$000
 dn G_4,5,$000
 dn A_4,5,$000
 dn C_5,5,$000
 dn ___,0,$000
 dn G_4,5,$000
 dn ___,0,$000
 dn C_5,5,$000
 dn ___,0,$000
 dn C_4,5,$000
 dn ___,0,$000

dead_theme_P8:
 dn A#3,4,$F0A
 dn ___,0,$000
 dn F_3,4,$000
 dn ___,0,$000
 dn C#3,4,$000
 dn ___,0,$000
 dn G#3,4,$000
 dn A#3,4,$000
 dn C_4,4,$000
 dn ___,0,$000
 dn E_3,4,$000
 dn ___,0,$000
 dn C_4,4,$000
 dn ___,0,$000
 dn A#3,4,$000
 dn C#4,4,$000
 dn G#3,4,$F05
 dn ___,0,$000
 dn ___,0,$000
 dn ___,0,$000
 dn ___,0,$000
 dn ___,0,$000
 dn ___,0,$000
 dn C_6,3,$000
 dn G_3,4,$F0A
 dn ___,0,$000
 dn ___,0,$000
 dn G_3,3,$000
 dn C_3,4,$000
 dn ___,0,$F05
 dn C_3,2,$000
 dn C#3,4,$000
 dn ___,0,$000
 dn ___,0,$000
 dn C#3,3,$000
 dn G_3,4,$F0A
 dn C_3,4,$000
 dn E_3,4,$000
 dn ___,0,$000
 dn ___,0,$000
 dn ___,0,$000
 dn ___,0,$000
 dn ___,0,$000
 dn ___,0,$000
 dn ___,0,$000
 dn ___,0,$000
 dn ___,0,$000
 dn ___,0,$000
 dn ___,0,$000
 dn ___,0,$000
 dn ___,0,$000
 dn ___,0,$000
 dn ___,0,$000
 dn ___,0,$000
 dn ___,0,$000
 dn ___,0,$000
 dn ___,0,$000
 dn ___,0,$000
 dn ___,0,$000
 dn ___,0,$000
 dn ___,0,$000
 dn ___,0,$000
 dn ___,0,$000
 dn ___,0,$000

dead_theme_P9:
 dn F_5,1,$000
 dn A#5,1,$000
 dn A_5,1,$000
 dn A#5,1,$000
 dn C#6,1,$000
 dn A#5,1,$000
 dn C_6,1,$000
 dn C#6,1,$000
 dn C_6,1,$000
 dn F_5,1,$000
 dn E_5,1,$000
 dn F_5,1,$000
 dn G#5,1,$000
 dn F_5,1,$000
 dn G_5,1,$000
 dn F_5,1,$000
 dn C_5,1,$000
 dn ___,0,$000
 dn A#4,1,$000
 dn ___,0,$000
 dn F_4,1,$000
 dn ___,0,$000
 dn C_5,1,$000
 dn ___,0,$000
 dn F_5,1,$000
 dn C_5,1,$000
 dn C#5,1,$000
 dn C_5,1,$000
 dn ___,0,$000
 dn A#4,1,$000
 dn ___,0,$000
 dn C#5,1,$000
 dn ___,0,$000
 dn A#4,1,$000
 dn ___,0,$000
 dn C_5,1,$000
 dn A#4,1,$000
 dn G#4,1,$000
 dn G_4,1,$B00
 dn ___,0,$000
 dn ___,0,$000
 dn ___,0,$000
 dn ___,0,$000
 dn ___,0,$000
 dn ___,0,$000
 dn ___,0,$000
 dn ___,0,$000
 dn ___,0,$000
 dn ___,0,$000
 dn ___,0,$000
 dn ___,0,$000
 dn ___,0,$000
 dn ___,0,$000
 dn ___,0,$000
 dn ___,0,$000
 dn ___,0,$000
 dn ___,0,$000
 dn ___,0,$000
 dn ___,0,$000
 dn ___,0,$000
 dn ___,0,$000
 dn ___,0,$000
 dn ___,0,$000
 dn ___,0,$000

dead_theme_P10:
 dn ___,0,$000
 dn C#6,7,$000
 dn C_6,7,$000
 dn C#6,7,$000
 dn F_6,7,$000
 dn C#6,7,$000
 dn D#6,7,$000
 dn F_6,7,$000
 dn D#6,7,$C05
 dn F_6,7,$000
 dn G_6,7,$000
 dn G#6,7,$000
 dn C_7,7,$000
 dn F_6,7,$000
 dn D#7,7,$000
 dn C#7,7,$000
 dn C_7,7,$000
 dn A#6,7,$000
 dn C_7,7,$388
 dn A#6,7,$388
 dn C_7,7,$388
 dn A#6,7,$388
 dn C_7,7,$388
 dn A#6,7,$388
 dn C_7,7,$388
 dn G_6,7,$000
 dn G#6,7,$000
 dn G_6,7,$000
 dn G_6,7,$C05
 dn C_7,7,$000
 dn C#7,7,$377
 dn C_7,7,$377
 dn C#7,7,$377
 dn C_7,7,$377
 dn C#7,7,$000
 dn C_7,7,$000
 dn A#6,7,$000
 dn G#6,7,$000
 dn G_6,7,$000
 dn ___,0,$000
 dn ___,0,$000
 dn ___,0,$000
 dn ___,0,$000
 dn ___,0,$000
 dn ___,0,$000
 dn ___,0,$000
 dn ___,0,$000
 dn ___,0,$000
 dn ___,0,$000
 dn ___,0,$000
 dn ___,0,$000
 dn ___,0,$000
 dn ___,0,$000
 dn ___,0,$000
 dn ___,0,$000
 dn ___,0,$000
 dn ___,0,$000
 dn ___,0,$000
 dn ___,0,$000
 dn ___,0,$000
 dn ___,0,$000
 dn ___,0,$000
 dn ___,0,$000
 dn ___,0,$000

dead_theme_P11:
 dn ___,0,$C00
 dn ___,0,$000
 dn ___,0,$000
 dn ___,0,$000
 dn ___,0,$000
 dn E_5,5,$000
 dn F_5,5,$000
 dn E_5,5,$000
 dn A_5,5,$000
 dn ___,0,$000
 dn C_5,5,$000
 dn A#4,5,$000
 dn D_5,5,$000
 dn C_5,5,$000
 dn E_5,5,$000
 dn A_5,5,$000
 dn C_6,5,$000
 dn E_5,5,$000
 dn F_5,5,$000
 dn G_5,5,$000
 dn A#5,5,$000
 dn A_5,5,$000
 dn G_5,5,$000
 dn A_5,5,$000
 dn C_6,5,$000
 dn ___,0,$000
 dn A#5,5,$000
 dn ___,0,$000
 dn A_5,5,$000
 dn A#5,5,$000
 dn C_6,5,$000
 dn E_6,5,$000
 dn G_6,5,$000
 dn ___,0,$000
 dn F_6,5,$000
 dn C_6,5,$000
 dn F_6,5,$000
 dn ___,0,$000
 dn D_6,5,$000
 dn A_5,5,$000
 dn E_6,5,$000
 dn ___,0,$000
 dn D_6,5,$000
 dn G_5,5,$000
 dn C_6,5,$000
 dn F_5,5,$000
 dn A#5,5,$000
 dn E_5,5,$000
 dn G_5,5,$000
 dn ___,0,$000
 dn F_5,5,$000
 dn C_5,5,$000
 dn F_5,5,$000
 dn ___,0,$000
 dn G_5,5,$000
 dn F_5,5,$000
 dn E_5,5,$000
 dn ___,0,$000
 dn F_5,5,$000
 dn F#5,5,$000
 dn G_5,5,$000
 dn ___,0,$000
 dn ___,0,$000
 dn ___,0,$20D

dead_theme_P12:
 dn F_3,4,$F05
 dn ___,0,$000
 dn ___,0,$000
 dn ___,0,$484
 dn F_3,2,$484
 dn F_4,2,$000
 dn A#4,2,$000
 dn A#3,4,$000
 dn C_3,4,$000
 dn E_3,4,$000
 dn F_3,4,$000
 dn F_3,2,$000
 dn G#3,4,$000
 dn C_4,4,$000
 dn G#3,4,$000
 dn G_3,4,$000
 dn F_3,4,$000
 dn E_3,4,$000
 dn F_3,4,$F05
 dn ___,0,$000
 dn ___,0,$000
 dn ___,0,$000
 dn ___,0,$F0A
 dn ___,0,$000
 dn ___,0,$000
 dn G#5,2,$000
 dn G_5,2,$000
 dn F_5,2,$000
 dn G#5,2,$000
 dn C#3,4,$000
 dn F_3,4,$000
 dn G#3,4,$F05
 dn ___,0,$000
 dn A#3,4,$F0A
 dn C_4,4,$000
 dn C#4,4,$000
 dn G#3,4,$B00
 dn ___,0,$000
 dn ___,0,$000
 dn ___,0,$000
 dn ___,0,$000
 dn ___,0,$000
 dn ___,0,$000
 dn ___,0,$000
 dn ___,0,$000
 dn ___,0,$000
 dn ___,0,$000
 dn ___,0,$000
 dn ___,0,$000
 dn ___,0,$000
 dn ___,0,$000
 dn ___,0,$000
 dn ___,0,$000
 dn ___,0,$000
 dn ___,0,$000
 dn ___,0,$000
 dn ___,0,$000
 dn ___,0,$000
 dn ___,0,$000
 dn ___,0,$000
 dn ___,0,$000
 dn ___,0,$000
 dn ___,0,$000
 dn ___,0,$000

dead_theme_P13:
 dn C_5,1,$000
 dn ___,0,$482
 dn ___,0,$492
 dn F_4,2,$000
 dn F_5,1,$F0A
 dn E_5,1,$000
 dn F_5,1,$000
 dn E_5,1,$000
 dn F_5,1,$000
 dn G_5,1,$000
 dn G#5,1,$000
 dn ___,0,$000
 dn G#4,3,$000
 dn F_5,3,$000
 dn G#5,3,$000
 dn ___,0,$4A2
 dn F_5,3,$000
 dn A#4,2,$000
 dn C_6,1,$000
 dn ___,0,$000
 dn ___,0,$000
 dn G#5,3,$000
 dn C_6,1,$000
 dn A#5,1,$000
 dn C_6,1,$000
 dn A#5,1,$000
 dn G#5,1,$000
 dn C_6,1,$000
 dn C#6,1,$000
 dn ___,0,$481
 dn ___,0,$481
 dn C#6,3,$000
 dn A#5,2,$000
 dn F_6,1,$000
 dn ___,0,$4A1
 dn C#6,3,$000
 dn F_6,2,$000
 dn ___,0,$000
 dn ___,0,$000
 dn ___,0,$000
 dn ___,0,$000
 dn ___,0,$000
 dn ___,0,$000
 dn ___,0,$000
 dn ___,0,$000
 dn ___,0,$000
 dn ___,0,$000
 dn ___,0,$000
 dn ___,0,$000
 dn ___,0,$000
 dn ___,0,$000
 dn ___,0,$000
 dn ___,0,$000
 dn ___,0,$000
 dn ___,0,$000
 dn ___,0,$000
 dn ___,0,$000
 dn ___,0,$000
 dn ___,0,$000
 dn ___,0,$000
 dn ___,0,$000
 dn ___,0,$000
 dn ___,0,$000
 dn ___,0,$000

dead_theme_P14:
 dn F_6,7,$000
 dn ___,0,$481
 dn ___,0,$492
 dn ___,0,$C00
 dn C_6,7,$000
 dn A#5,7,$377
 dn C_6,7,$377
 dn A#5,7,$377
 dn C_6,7,$377
 dn E_6,7,$000
 dn F_6,7,$344
 dn ___,0,$481
 dn ___,0,$C00
 dn F_6,8,$000
 dn ___,0,$000
 dn ___,0,$C00
 dn A#5,7,$000
 dn C_6,7,$000
 dn G#6,7,$000
 dn ___,0,$000
 dn ___,0,$481
 dn ___,0,$C00
 dn G#6,7,$000
 dn G_6,7,$000
 dn G#6,7,$000
 dn G_6,7,$000
 dn F_6,7,$000
 dn G#6,7,$000
 dn A#6,7,$000
 dn ___,0,$481
 dn ___,0,$481
 dn A#6,7,$000
 dn C_7,7,$355
 dn C#7,7,$355
 dn ___,0,$481
 dn ___,0,$C00
 dn ___,0,$000
 dn ___,0,$000
 dn ___,0,$000
 dn ___,0,$000
 dn ___,0,$000
 dn ___,0,$000
 dn ___,0,$000
 dn ___,0,$000
 dn ___,0,$000
 dn ___,0,$000
 dn ___,0,$000
 dn ___,0,$000
 dn ___,0,$000
 dn ___,0,$000
 dn ___,0,$000
 dn ___,0,$000
 dn ___,0,$000
 dn ___,0,$000
 dn ___,0,$000
 dn ___,0,$000
 dn ___,0,$000
 dn ___,0,$000
 dn ___,0,$000
 dn ___,0,$000
 dn ___,0,$000
 dn ___,0,$000
 dn ___,0,$000
 dn ___,0,$000

dead_theme_P15:
 dn F_5,6,$000
 dn ___,0,$000
 dn ___,0,$000
 dn G_5,6,$000
 dn ___,0,$000
 dn G_5,6,$000
 dn A#5,6,$000
 dn A_5,6,$000
 dn C_6,6,$000
 dn ___,0,$000
 dn F_6,6,$000
 dn E_6,6,$000
 dn F_6,6,$000
 dn E_6,6,$000
 dn D_6,6,$000
 dn E_6,6,$000
 dn F_6,6,$000
 dn ___,0,$000
 dn C_6,6,$000
 dn ___,0,$000
 dn D_7,6,$000
 dn ___,0,$482
 dn C_7,6,$000
 dn ___,0,$000
 dn C_7,6,$000
 dn ___,0,$000
 dn D_7,6,$000
 dn ___,0,$20A
 dn D#6,6,$000
 dn D_6,6,$000
 dn F_6,6,$000
 dn A_6,6,$000
 dn A#6,6,$000
 dn ___,0,$000
 dn A#6,3,$000
 dn F#6,6,$000
 dn A_6,6,$000
 dn ___,0,$000
 dn F_6,6,$000
 dn ___,0,$000
 dn G_6,6,$000
 dn ___,0,$000
 dn A_6,6,$000
 dn A#6,6,$000
 dn C_7,6,$000
 dn ___,0,$20A
 dn C_7,3,$000
 dn ___,0,$20A
 dn A#6,6,$000
 dn ___,0,$000
 dn A#6,3,$000
 dn F#6,6,$000
 dn A_6,6,$000
 dn ___,0,$000
 dn A#6,6,$000
 dn A_6,6,$000
 dn G_6,6,$000
 dn ___,0,$000
 dn F_6,6,$000
 dn D_6,6,$000
 dn E_6,6,$000
 dn ___,0,$20A
 dn E_6,3,$000
 dn ___,0,$20A

dead_theme_P16:
 dn A#3,4,$F05
 dn ___,0,$000
 dn ___,0,$000
 dn ___,0,$000
 dn A#4,1,$000
 dn ___,0,$000
 dn A#4,2,$000
 dn A#3,3,$000
 dn G_3,4,$F0A
 dn ___,0,$000
 dn F_3,4,$000
 dn C_3,4,$000
 dn F_3,4,$000
 dn ___,0,$000
 dn ___,0,$F05
 dn F_3,3,$000
 dn D#3,3,$000
 dn F_3,2,$000
 dn G_3,4,$F0A
 dn ___,0,$000
 dn G_3,2,$000
 dn G_3,3,$000
 dn G#3,4,$000
 dn ___,0,$000
 dn ___,0,$000
 dn G#3,3,$000
 dn C_4,4,$000
 dn ___,0,$000
 dn ___,0,$000
 dn C_4,3,$000
 dn C_3,4,$000
 dn ___,0,$000
 dn C#3,4,$000
 dn C#3,2,$000
 dn C_3,4,$000
 dn ___,0,$000
 dn ___,0,$000
 dn C_3,3,$000
 dn ___,0,$000
 dn ___,0,$000
 dn ___,0,$000
 dn ___,0,$000
 dn ___,0,$000
 dn ___,0,$000
 dn ___,0,$000
 dn ___,0,$000
 dn ___,0,$000
 dn ___,0,$000
 dn ___,0,$000
 dn ___,0,$000
 dn ___,0,$000
 dn ___,0,$000
 dn ___,0,$000
 dn ___,0,$000
 dn ___,0,$000
 dn ___,0,$000
 dn ___,0,$000
 dn ___,0,$000
 dn ___,0,$000
 dn ___,0,$000
 dn ___,0,$000
 dn ___,0,$000
 dn ___,0,$000
 dn ___,0,$000

dead_theme_P17:
 dn G_5,1,$000
 dn ___,0,$000
 dn ___,0,$000
 dn ___,0,$000
 dn C#6,2,$000
 dn G_5,3,$000
 dn C#6,3,$000
 dn E_5,2,$000
 dn E_5,1,$000
 dn C_5,1,$000
 dn G#4,1,$000
 dn A#4,1,$000
 dn C_5,1,$000
 dn ___,0,$000
 dn G#4,1,$000
 dn ___,0,$000
 dn G#4,3,$000
 dn C_6,2,$000
 dn G_4,1,$000
 dn ___,0,$000
 dn ___,0,$000
 dn G_5,2,$000
 dn C_5,1,$000
 dn ___,0,$000
 dn C_5,1,$000
 dn C#5,1,$000
 dn G#4,1,$000
 dn ___,0,$000
 dn G#4,3,$000
 dn C_6,2,$000
 dn E_4,1,$000
 dn E_5,2,$000
 dn F_4,1,$000
 dn E_4,1,$000
 dn C_4,1,$000
 dn ___,0,$000
 dn C_4,3,$000
 dn E_4,3,$B00
 dn ___,0,$000
 dn ___,0,$000
 dn ___,0,$000
 dn ___,0,$000
 dn ___,0,$000
 dn ___,0,$000
 dn ___,0,$000
 dn ___,0,$000
 dn ___,0,$000
 dn ___,0,$000
 dn ___,0,$000
 dn ___,0,$000
 dn ___,0,$000
 dn ___,0,$000
 dn ___,0,$000
 dn ___,0,$000
 dn ___,0,$000
 dn ___,0,$000
 dn ___,0,$000
 dn ___,0,$000
 dn ___,0,$000
 dn ___,0,$000
 dn ___,0,$000
 dn ___,0,$000
 dn ___,0,$000
 dn ___,0,$000

dead_theme_P18:
 dn C#7,7,$000
 dn ___,0,$000
 dn ___,0,$4B2
 dn ___,0,$4B2
 dn E_6,7,$000
 dn ___,0,$000
 dn ___,0,$000
 dn ___,0,$C00
 dn C_7,7,$000
 dn A#6,7,$388
 dn G#6,7,$388
 dn G_6,7,$388
 dn G#6,7,$388
 dn ___,0,$000
 dn C_7,7,$355
 dn ___,0,$355
 dn ___,0,$481
 dn ___,0,$C00
 dn G_6,7,$000
 dn ___,0,$481
 dn ___,0,$481
 dn ___,0,$C00
 dn F_6,1,$000
 dn G_6,2,$000
 dn F_6,1,$000
 dn G#6,1,$000
 dn C_7,1,$000
 dn ___,0,$000
 dn ___,0,$482
 dn ___,0,$C00
 dn G_5,1,$000
 dn ___,0,$000
 dn G#5,1,$000
 dn G_5,1,$000
 dn E_5,1,$000
 dn ___,0,$4A1
 dn ___,0,$000
 dn ___,0,$C00
 dn ___,0,$000
 dn ___,0,$000
 dn ___,0,$000
 dn ___,0,$000
 dn ___,0,$000
 dn ___,0,$000
 dn ___,0,$000
 dn ___,0,$000
 dn ___,0,$000
 dn ___,0,$000
 dn ___,0,$000
 dn ___,0,$000
 dn ___,0,$000
 dn ___,0,$000
 dn ___,0,$000
 dn ___,0,$000
 dn ___,0,$000
 dn ___,0,$000
 dn ___,0,$000
 dn ___,0,$000
 dn ___,0,$000
 dn ___,0,$000
 dn ___,0,$000
 dn ___,0,$000
 dn ___,0,$000
 dn ___,0,$000

dead_theme_P19:
 dn F_3,4,$F05
 dn ___,0,$000
 dn ___,0,$000
 dn ___,0,$000
 dn F_3,3,$F0A
 dn ___,0,$000
 dn C#3,4,$000
 dn ___,0,$000
 dn ___,0,$000
 dn F_3,3,$000
 dn C_3,4,$000
 dn ___,0,$000
 dn ___,0,$000
 dn ___,0,$000
 dn C_3,3,$000
 dn ___,0,$000
 dn C_6,6,$F0A
 dn G_5,6,$000
 dn G#5,6,$000
 dn ___,0,$000
 dn G#5,3,$000
 dn C_6,3,$000
 dn A#5,6,$000
 dn ___,0,$000
 dn G_5,6,$000
 dn ___,0,$000
 dn C_6,6,$000
 dn ___,0,$000
 dn G_5,3,$000
 dn C_6,3,$000
 dn F_4,3,$000
 dn G#4,3,$000
 dn G#3,4,$000
 dn G_3,4,$000
 dn F_3,4,$000
 dn ___,0,$000
 dn ___,0,$000
 dn ___,0,$000
 dn F_3,3,$000
 dn ___,0,$000
 dn G_3,4,$000
 dn ___,0,$000
 dn ___,0,$000
 dn G_3,3,$000
 dn C_3,4,$000
 dn ___,0,$000
 dn ___,0,$000
 dn ___,0,$000
 dn ___,0,$000
 dn ___,0,$000
 dn ___,0,$000
 dn ___,0,$000
 dn ___,0,$000
 dn ___,0,$000
 dn ___,0,$000
 dn ___,0,$000
 dn ___,0,$000
 dn ___,0,$000
 dn ___,0,$000
 dn ___,0,$000
 dn ___,0,$000
 dn ___,0,$000
 dn ___,0,$000
 dn ___,0,$000

dead_theme_P20:
 dn F_3,4,$F05
 dn ___,0,$000
 dn ___,0,$000
 dn ___,0,$000
 dn ___,0,$F0A
 dn ___,0,$000
 dn C#3,4,$000
 dn ___,0,$000
 dn ___,0,$000
 dn C#3,3,$000
 dn C_3,4,$000
 dn ___,0,$000
 dn ___,0,$000
 dn ___,0,$000
 dn ___,0,$000
 dn ___,0,$000
 dn G_3,4,$000
 dn A#3,4,$000
 dn F_3,4,$000
 dn ___,0,$000
 dn G#3,4,$000
 dn G#3,2,$000
 dn G_3,4,$000
 dn ___,0,$000
 dn G_3,3,$000
 dn D#5,3,$000
 dn C_3,4,$000
 dn ___,0,$000
 dn ___,0,$000
 dn ___,0,$000
 dn ___,0,$000
 dn ___,0,$000
 dn ___,0,$000
 dn ___,0,$B00
 dn ___,0,$000
 dn ___,0,$000
 dn ___,0,$000
 dn ___,0,$000
 dn ___,0,$000
 dn ___,0,$000
 dn ___,0,$000
 dn ___,0,$000
 dn ___,0,$000
 dn ___,0,$000
 dn ___,0,$000
 dn ___,0,$000
 dn ___,0,$000
 dn ___,0,$000
 dn ___,0,$000
 dn ___,0,$000
 dn ___,0,$000
 dn ___,0,$000
 dn ___,0,$000
 dn ___,0,$000
 dn ___,0,$000
 dn ___,0,$000
 dn ___,0,$000
 dn ___,0,$000
 dn ___,0,$000
 dn ___,0,$000
 dn ___,0,$000
 dn ___,0,$000
 dn ___,0,$000
 dn ___,0,$000

dead_theme_P21:
 dn F_4,1,$000
 dn ___,0,$000
 dn ___,0,$000
 dn ___,0,$000
 dn ___,0,$000
 dn F_4,3,$000
 dn F_4,1,$000
 dn ___,0,$000
 dn ___,0,$000
 dn F_4,3,$000
 dn E_4,1,$000
 dn ___,0,$000
 dn ___,0,$000
 dn E_4,3,$000
 dn C_5,3,$000
 dn ___,0,$000
 dn E_4,1,$000
 dn E_4,2,$000
 dn F_4,1,$000
 dn ___,0,$000
 dn ___,0,$000
 dn F_4,3,$000
 dn C_4,1,$000
 dn ___,0,$000
 dn A#3,1,$000
 dn A#3,2,$000
 dn E_4,1,$000
 dn ___,0,$000
 dn ___,0,$000
 dn E_4,3,$000
 dn C_5,3,$000
 dn ___,0,$482
 dn ___,0,$210
 dn ___,0,$210
 dn ___,0,$000
 dn ___,0,$000
 dn ___,0,$000
 dn ___,0,$000
 dn ___,0,$000
 dn ___,0,$000
 dn ___,0,$000
 dn ___,0,$000
 dn ___,0,$000
 dn ___,0,$000
 dn ___,0,$000
 dn ___,0,$000
 dn ___,0,$000
 dn ___,0,$000
 dn ___,0,$000
 dn ___,0,$000
 dn ___,0,$000
 dn ___,0,$000
 dn ___,0,$000
 dn ___,0,$000
 dn ___,0,$000
 dn ___,0,$000
 dn ___,0,$000
 dn ___,0,$000
 dn ___,0,$000
 dn ___,0,$000
 dn ___,0,$000
 dn ___,0,$000
 dn ___,0,$000
 dn ___,0,$000

dead_theme_P22:
 dn G#5,1,$000
 dn ___,0,$000
 dn ___,0,$000
 dn ___,0,$000
 dn C_6,1,$000
 dn C#6,1,$000
 dn A#5,1,$000
 dn ___,0,$000
 dn G_5,1,$000
 dn ___,0,$000
 dn C_6,1,$000
 dn ___,0,$000
 dn ___,0,$492
 dn ___,0,$492
 dn ___,0,$C00
 dn ___,0,$000
 dn A#5,1,$000
 dn E_6,1,$000
 dn F_6,1,$000
 dn ___,0,$000
 dn C_6,1,$000
 dn ___,0,$000
 dn D#6,1,$000
 dn ___,0,$000
 dn D_6,1,$000
 dn ___,0,$000
 dn C_6,1,$000
 dn ___,0,$000
 dn ___,0,$492
 dn ___,0,$492
 dn ___,0,$C00
 dn ___,0,$000
 dn ___,0,$000
 dn ___,0,$000
 dn ___,0,$000
 dn ___,0,$000
 dn ___,0,$000
 dn ___,0,$000
 dn ___,0,$000
 dn ___,0,$000
 dn ___,0,$000
 dn ___,0,$000
 dn ___,0,$000
 dn ___,0,$000
 dn ___,0,$000
 dn ___,0,$000
 dn ___,0,$000
 dn ___,0,$000
 dn ___,0,$000
 dn ___,0,$000
 dn ___,0,$000
 dn ___,0,$000
 dn ___,0,$000
 dn ___,0,$000
 dn ___,0,$000
 dn ___,0,$000
 dn ___,0,$000
 dn ___,0,$000
 dn ___,0,$000
 dn ___,0,$000
 dn ___,0,$000
 dn ___,0,$000
 dn ___,0,$000
 dn ___,0,$000

dead_theme_P23:
 dn F_4,1,$000
 dn ___,0,$000
 dn ___,0,$000
 dn F_4,2,$000
 dn C_4,1,$000
 dn ___,0,$000
 dn A#4,1,$000
 dn A#4,2,$000
 dn G_4,1,$000
 dn ___,0,$000
 dn C_5,1,$000
 dn C_5,2,$000
 dn F_4,1,$000
 dn E_4,1,$000
 dn F_4,1,$000
 dn ___,0,$000
 dn F_5,6,$000
 dn E_5,5,$000
 dn F_5,6,$000
 dn ___,0,$000
 dn C_5,6,$000
 dn ___,0,$000
 dn F_5,6,$000
 dn ___,0,$000
 dn C_5,3,$000
 dn F_5,3,$000
 dn E_5,6,$000
 dn ___,0,$000
 dn F_5,5,$000
 dn E_5,6,$000
 dn F_5,5,$000
 dn ___,0,$000
 dn C_5,1,$000
 dn E_5,1,$000
 dn F_5,1,$000
 dn ___,0,$000
 dn ___,0,$203
 dn F_5,3,$000
 dn C_5,1,$000
 dn ___,0,$000
 dn B_4,1,$000
 dn B_4,3,$000
 dn G#4,1,$000
 dn ___,0,$000
 dn G_4,1,$000
 dn ___,0,$000
 dn ___,0,$000
 dn E_4,2,$000
 dn G_4,3,$000
 dn ___,0,$A02
 dn ___,0,$000
 dn ___,0,$B00
 dn ___,0,$000
 dn ___,0,$000
 dn ___,0,$000
 dn ___,0,$000
 dn ___,0,$000
 dn ___,0,$000
 dn ___,0,$000
 dn ___,0,$000
 dn ___,0,$000
 dn ___,0,$000
 dn ___,0,$000
 dn ___,0,$000

dead_theme_P24:
 dn F_3,4,$F0A
 dn ___,0,$000
 dn ___,0,$000
 dn ___,0,$000
 dn C#3,4,$000
 dn ___,0,$000
 dn ___,0,$000
 dn ___,0,$000
 dn C_3,4,$000
 dn ___,0,$000
 dn ___,0,$000
 dn ___,0,$000
 dn ___,0,$000
 dn ___,0,$000
 dn ___,0,$000
 dn ___,0,$000
 dn ___,0,$000
 dn ___,0,$000
 dn G#3,4,$000
 dn G_3,4,$000
 dn F_3,4,$F0A
 dn ___,0,$000
 dn G#3,6,$C0A
 dn ___,0,$000
 dn G_3,4,$000
 dn ___,0,$000
 dn A#3,4,$000
 dn B_3,1,$000
 dn C_4,4,$000
 dn ___,0,$000
 dn ___,0,$000
 dn C_5,2,$000
 dn G_4,1,$000
 dn ___,0,$000
 dn ___,0,$000
 dn G_4,3,$000
 dn ___,0,$000
 dn ___,0,$000
 dn ___,0,$000
 dn ___,0,$000
 dn ___,0,$000
 dn ___,0,$000
 dn ___,0,$000
 dn ___,0,$000
 dn ___,0,$000
 dn ___,0,$000
 dn ___,0,$000
 dn ___,0,$000
 dn ___,0,$000
 dn ___,0,$000
 dn ___,0,$000
 dn ___,0,$000
 dn ___,0,$000
 dn ___,0,$000
 dn ___,0,$000
 dn ___,0,$000
 dn ___,0,$000
 dn ___,0,$000
 dn ___,0,$000
 dn ___,0,$000
 dn ___,0,$000
 dn ___,0,$000
 dn ___,0,$000
 dn ___,0,$000

dead_theme_P25:
 dn C_5,1,$000
 dn G#5,3,$000
 dn C_5,1,$000
 dn C#5,1,$000
 dn A#4,1,$000
 dn A#4,2,$000
 dn G_4,1,$000
 dn G_4,2,$000
 dn C_5,1,$000
 dn ___,0,$000
 dn ___,0,$000
 dn ___,0,$000
 dn ___,0,$000
 dn C_5,3,$000
 dn E_5,3,$000
 dn F_5,3,$000
 dn G_5,3,$000
 dn F_5,3,$000
 dn E_4,1,$000
 dn ___,0,$000
 dn G#4,1,$000
 dn ___,0,$000
 dn ___,0,$000
 dn A#4,1,$000
 dn C_5,1,$000
 dn ___,0,$000
 dn F_4,1,$000
 dn ___,0,$000
 dn E_4,1,$000
 dn ___,0,$000
 dn ___,0,$000
 dn E_4,3,$000
 dn C_5,2,$000
 dn ___,0,$4A1
 dn ___,0,$210
 dn C_5,1,$B00
 dn ___,0,$000
 dn ___,0,$000
 dn ___,0,$000
 dn ___,0,$000
 dn ___,0,$000
 dn ___,0,$000
 dn ___,0,$000
 dn ___,0,$000
 dn ___,0,$000
 dn ___,0,$000
 dn ___,0,$000
 dn ___,0,$000
 dn ___,0,$000
 dn ___,0,$000
 dn ___,0,$000
 dn ___,0,$000
 dn ___,0,$000
 dn ___,0,$000
 dn ___,0,$000
 dn ___,0,$000
 dn ___,0,$000
 dn ___,0,$000
 dn ___,0,$000
 dn ___,0,$000
 dn ___,0,$000
 dn ___,0,$000
 dn ___,0,$000
 dn ___,0,$000

dead_theme_P26:
 dn G#6,7,$000
 dn ___,0,$C02
 dn G_6,7,$000
 dn G#6,7,$000
 dn F_6,7,$000
 dn ___,0,$C02
 dn G_6,7,$000
 dn F_6,7,$000
 dn E_6,7,$F05
 dn ___,0,$462
 dn ___,0,$462
 dn ___,0,$C02
 dn F_6,7,$000
 dn G_6,7,$355
 dn F_6,7,$366
 dn ___,0,$000
 dn E_6,7,$F0A
 dn D_6,7,$000
 dn C_6,7,$000
 dn E_6,7,$000
 dn F_6,7,$000
 dn ___,0,$462
 dn C_6,7,$000
 dn F_6,7,$000
 dn D#6,7,$000
 dn ___,0,$462
 dn D_6,7,$000
 dn ___,0,$C05
 dn C_6,7,$000
 dn ___,0,$481
 dn ___,0,$462
 dn ___,0,$C00
 dn ___,0,$000
 dn ___,0,$000
 dn ___,0,$000
 dn ___,0,$000
 dn ___,0,$000
 dn ___,0,$000
 dn ___,0,$000
 dn ___,0,$000
 dn ___,0,$000
 dn ___,0,$000
 dn ___,0,$000
 dn ___,0,$000
 dn ___,0,$000
 dn ___,0,$000
 dn ___,0,$000
 dn ___,0,$000
 dn ___,0,$000
 dn ___,0,$000
 dn ___,0,$000
 dn ___,0,$000
 dn ___,0,$000
 dn ___,0,$000
 dn ___,0,$000
 dn ___,0,$000
 dn ___,0,$000
 dn ___,0,$000
 dn ___,0,$000
 dn ___,0,$000
 dn ___,0,$000
 dn ___,0,$000
 dn ___,0,$000
 dn ___,0,$000

dead_theme_P27:
 dn G#5,1,$000
 dn ___,0,$000
 dn ___,0,$000
 dn ___,0,$000
 dn ___,0,$000
 dn ___,0,$C00
 dn F_5,1,$000
 dn ___,0,$000
 dn ___,0,$000
 dn ___,0,$C00
 dn E_5,1,$000
 dn ___,0,$4A1
 dn G#4,5,$000
 dn G_4,5,$000
 dn G#4,5,$000
 dn ___,0,$000
 dn G#4,5,$000
 dn G_4,5,$000
 dn F_4,5,$000
 dn ___,0,$000
 dn F_4,5,$000
 dn ___,0,$000
 dn C#4,5,$000
 dn ___,0,$000
 dn ___,0,$000
 dn C#4,5,$000
 dn C_4,5,$000
 dn ___,0,$000
 dn G#4,5,$000
 dn G_4,5,$000
 dn G#4,5,$000
 dn ___,0,$000
 dn C_5,1,$000
 dn G_5,1,$000
 dn F_5,1,$F05
 dn ___,0,$000
 dn ___,0,$000
 dn ___,0,$000
 dn ___,0,$F0A
 dn ___,0,$C00
 dn F_5,1,$000
 dn ___,0,$000
 dn ___,0,$000
 dn ___,0,$C00
 dn E_5,1,$000
 dn ___,0,$000
 dn ___,0,$000
 dn ___,0,$C00
 dn ___,0,$000
 dn ___,0,$000
 dn ___,0,$000
 dn ___,0,$000
 dn ___,0,$000
 dn ___,0,$000
 dn ___,0,$000
 dn ___,0,$000
 dn ___,0,$000
 dn ___,0,$000
 dn ___,0,$000
 dn ___,0,$000
 dn ___,0,$000
 dn ___,0,$000
 dn ___,0,$000
 dn ___,0,$000

dead_theme_P28:
 dn F_3,4,$000
 dn ___,0,$000
 dn ___,0,$000
 dn F_3,3,$000
 dn G_3,4,$000
 dn ___,0,$000
 dn ___,0,$000
 dn G_3,3,$000
 dn C_3,4,$000
 dn ___,0,$000
 dn ___,0,$000
 dn G_3,4,$F05
 dn G_3,3,$000
 dn G#3,4,$000
 dn ___,0,$000
 dn G_3,4,$000
 dn G_3,3,$000
 dn E_3,4,$000
 dn ___,0,$000
 dn ___,0,$000
 dn E_3,3,$000
 dn F_3,4,$F05
 dn ___,0,$000
 dn ___,0,$000
 dn ___,0,$000
 dn ___,0,$F0A
 dn ___,0,$000
 dn C#3,4,$000
 dn ___,0,$000
 dn ___,0,$000
 dn F_3,3,$000
 dn C_4,4,$000
 dn ___,0,$000
 dn ___,0,$000
 dn ___,0,$000
 dn C_3,4,$000
 dn ___,0,$000
 dn G_3,4,$000
 dn ___,0,$000
 dn G#3,4,$000
 dn G#3,6,$C06
 dn C_4,6,$C0A
 dn ___,0,$000
 dn G#4,1,$000
 dn ___,0,$000
 dn G#4,3,$000
 dn ___,0,$000
 dn E_4,1,$000
 dn ___,0,$482
 dn ___,0,$205
 dn E_4,3,$000
 dn ___,0,$220
 dn C_5,6,$C09
 dn G#4,1,$000
 dn G#4,3,$000
 dn ___,0,$000
 dn ___,0,$000
 dn ___,0,$000
 dn ___,0,$000
 dn ___,0,$000
 dn ___,0,$000
 dn ___,0,$000
 dn ___,0,$000
 dn ___,0,$000

dead_theme_P29:
 dn F_5,1,$000
 dn ___,0,$000
 dn C_5,1,$000
 dn ___,0,$000
 dn B_4,1,$000
 dn B_4,2,$000
 dn G#4,1,$000
 dn G#4,2,$000
 dn C_5,1,$000
 dn ___,0,$000
 dn ___,0,$000
 dn C_5,2,$000
 dn ___,0,$208
 dn C_5,3,$000
 dn ___,0,$000
 dn ___,0,$000
 dn ___,0,$C00
 dn ___,0,$000
 dn ___,0,$000
 dn ___,0,$000
 dn ___,0,$000
 dn F_4,1,$000
 dn ___,0,$000
 dn ___,0,$000
 dn F_4,2,$000
 dn C_5,1,$000
 dn C#5,1,$000
 dn A#4,1,$000
 dn ___,0,$000
 dn G_4,1,$000
 dn G_4,2,$000
 dn C_5,1,$000
 dn ___,0,$000
 dn G_5,1,$000
 dn F_5,1,$000
 dn E_5,1,$000
 dn D_5,1,$000
 dn F_5,1,$000
 dn E_5,1,$000
 dn F_5,1,$000
 dn C_5,3,$000
 dn C_5,1,$000
 dn C_5,2,$000
 dn D#5,1,$000
 dn ___,0,$000
 dn D_5,1,$000
 dn ___,0,$000
 dn C_5,1,$000
 dn ___,0,$000
 dn ___,0,$000
 dn C_5,2,$000
 dn C_5,3,$000
 dn G_4,2,$000
 dn ___,0,$C00
 dn A#4,1,$B00
 dn ___,0,$000
 dn ___,0,$000
 dn ___,0,$000
 dn ___,0,$000
 dn ___,0,$000
 dn ___,0,$000
 dn ___,0,$000
 dn ___,0,$000
 dn ___,0,$000

dead_theme_P30:
 dn F_5,1,$F0A
 dn ___,0,$000
 dn ___,0,$000
 dn ___,0,$C00
 dn F_5,1,$000
 dn ___,0,$000
 dn ___,0,$000
 dn ___,0,$C00
 dn E_5,1,$000
 dn ___,0,$000
 dn ___,0,$000
 dn ___,0,$000
 dn ___,0,$000
 dn C_5,5,$000
 dn ___,0,$000
 dn C#5,5,$000
 dn ___,0,$000
 dn E_5,5,$000
 dn ___,0,$000
 dn C#5,5,$000
 dn ___,0,$000
 dn G#5,1,$000
 dn ___,0,$000
 dn ___,0,$000
 dn ___,0,$000
 dn ___,0,$000
 dn ___,0,$C00
 dn F_5,1,$000
 dn ___,0,$000
 dn ___,0,$000
 dn ___,0,$C00
 dn E_5,1,$000
 dn ___,0,$4A1
 dn ___,0,$000
 dn G#4,5,$000
 dn G_4,5,$000
 dn F_4,5,$000
 dn G#4,5,$000
 dn G_4,5,$000
 dn G#4,5,$000
 dn ___,0,$000
 dn E_4,5,$000
 dn ___,0,$000
 dn C_5,5,$000
 dn ___,0,$000
 dn G_4,5,$000
 dn ___,0,$000
 dn G_5,5,$000
 dn ___,0,$000
 dn ___,0,$000
 dn ___,0,$20B
 dn ___,0,$C00
 dn ___,0,$000
 dn ___,0,$000
 dn ___,0,$000
 dn ___,0,$000
 dn ___,0,$000
 dn ___,0,$000
 dn ___,0,$000
 dn ___,0,$000
 dn ___,0,$000
 dn ___,0,$000
 dn ___,0,$000
 dn ___,0,$000

dead_theme_P31:
 dn F_3,4,$F0A
 dn ___,0,$000
 dn ___,0,$000
 dn ___,0,$000
 dn C#3,4,$000
 dn G_3,4,$000
 dn G#3,4,$000
 dn A#3,4,$000
 dn C_4,4,$000
 dn ___,0,$000
 dn E_3,4,$000
 dn ___,0,$000
 dn C_4,4,$000
 dn ___,0,$000
 dn A#3,4,$000
 dn C#4,4,$000
 dn G#3,4,$F05
 dn ___,0,$000
 dn ___,0,$000
 dn ___,0,$000
 dn ___,0,$000
 dn ___,0,$000
 dn ___,0,$000
 dn C_6,3,$000
 dn G_3,4,$F0A
 dn ___,0,$000
 dn ___,0,$000
 dn ___,0,$000
 dn C_3,4,$000
 dn ___,0,$F05
 dn C_3,2,$000
 dn C#3,4,$000
 dn ___,0,$000
 dn ___,0,$000
 dn C#3,3,$000
 dn G_3,4,$F0A
 dn C_3,4,$000
 dn E_3,4,$000
 dn ___,0,$000
 dn ___,0,$000
 dn ___,0,$000
 dn ___,0,$000
 dn ___,0,$000
 dn ___,0,$000
 dn ___,0,$000
 dn ___,0,$000
 dn ___,0,$000
 dn ___,0,$000
 dn ___,0,$000
 dn ___,0,$000
 dn ___,0,$000
 dn ___,0,$000
 dn ___,0,$000
 dn ___,0,$000
 dn ___,0,$000
 dn ___,0,$000
 dn ___,0,$000
 dn ___,0,$000
 dn ___,0,$000
 dn ___,0,$000
 dn ___,0,$000
 dn ___,0,$000
 dn ___,0,$000
 dn ___,0,$000

dead_theme_P32:
 dn F_3,4,$000
 dn ___,0,$000
 dn C_5,1,$000
 dn ___,0,$000
 dn F_3,6,$000
 dn F_5,2,$000
 dn F_3,3,$000
 dn C_3,1,$000
 dn F_3,6,$000
 dn ___,0,$000
 dn F_3,6,$000
 dn F_3,3,$000
 dn ___,0,$220
 dn G_4,1,$000
 dn G#4,1,$000
 dn ___,0,$000
 dn F_4,1,$000
 dn E_4,1,$000
 dn F_4,1,$000
 dn ___,0,$000
 dn G_4,1,$000
 dn ___,0,$000
 dn A#4,1,$000
 dn ___,0,$000
 dn B_4,1,$000
 dn ___,0,$000
 dn C_5,1,$000
 dn ___,0,$000
 dn C_5,3,$000
 dn G_4,1,$000
 dn G#4,1,$000
 dn G_4,6,$C08
 dn E_4,6,$C08
 dn G_4,6,$C0A
 dn A#4,6,$C09
 dn ___,0,$000
 dn ___,0,$000
 dn ___,0,$000
 dn ___,0,$000
 dn ___,0,$000
 dn ___,0,$000
 dn ___,0,$000
 dn ___,0,$000
 dn ___,0,$000
 dn ___,0,$000
 dn ___,0,$000
 dn ___,0,$000
 dn ___,0,$000
 dn ___,0,$000
 dn ___,0,$000
 dn ___,0,$000
 dn ___,0,$000
 dn ___,0,$000
 dn ___,0,$000
 dn ___,0,$000
 dn ___,0,$000
 dn ___,0,$000
 dn ___,0,$000
 dn ___,0,$000
 dn ___,0,$000
 dn ___,0,$000
 dn ___,0,$000
 dn ___,0,$000
 dn ___,0,$000

dead_theme_P33:
 dn G#4,1,$F05
 dn ___,0,$000
 dn ___,0,$233
 dn F_5,3,$000
 dn C_5,3,$F0A
 dn ___,0,$C03
 dn ___,0,$C02
 dn ___,0,$C02
 dn ___,0,$C01
 dn G_5,3,$000
 dn D#5,3,$000
 dn C#5,3,$000
 dn G#4,1,$000
 dn ___,0,$C00
 dn ___,0,$000
 dn C_5,3,$000
 dn ___,0,$000
 dn C_6,3,$000
 dn F_5,7,$000
 dn ___,0,$000
 dn C_5,7,$000
 dn ___,0,$000
 dn F_4,7,$000
 dn ___,0,$000
 dn G_4,7,$000
 dn ___,0,$000
 dn G_4,7,$000
 dn ___,0,$000
 dn ___,0,$000
 dn E_4,7,$F05
 dn F_4,6,$000
 dn E_4,7,$F0A
 dn ___,0,$000
 dn A#5,3,$000
 dn ___,0,$B00
 dn ___,0,$000
 dn ___,0,$000
 dn ___,0,$000
 dn ___,0,$000
 dn ___,0,$000
 dn ___,0,$000
 dn ___,0,$000
 dn ___,0,$000
 dn ___,0,$000
 dn ___,0,$000
 dn ___,0,$000
 dn ___,0,$000
 dn ___,0,$000
 dn ___,0,$000
 dn ___,0,$000
 dn ___,0,$000
 dn ___,0,$000
 dn ___,0,$000
 dn ___,0,$000
 dn ___,0,$000
 dn ___,0,$000
 dn ___,0,$000
 dn ___,0,$000
 dn ___,0,$000
 dn ___,0,$000
 dn ___,0,$000
 dn ___,0,$000
 dn ___,0,$000
 dn ___,0,$000

dead_theme_P34:
 dn F_6,7,$000
 dn ___,0,$481
 dn ___,0,$4B3
 dn ___,0,$210
 dn G_6,10,$000
 dn G#6,10,$366
 dn F_6,10,$366
 dn G_6,10,$366
 dn D#6,10,$366
 dn C#6,10,$366
 dn C_6,10,$000
 dn ___,0,$000
 dn ___,0,$462
 dn ___,0,$462
 dn ___,0,$20D
 dn ___,0,$C00
 dn C_7,10,$000
 dn A#6,10,$000
 dn G#6,10,$000
 dn ___,0,$481
 dn G_6,10,$000
 dn ___,0,$481
 dn A#6,10,$000
 dn ___,0,$481
 dn B_6,10,$000
 dn ___,0,$461
 dn C_7,10,$000
 dn ___,0,$481
 dn ___,0,$461
 dn ___,0,$482
 dn ___,0,$C00
 dn A#6,10,$000
 dn ___,0,$462
 dn ___,0,$208
 dn ___,0,$C00
 dn ___,0,$000
 dn ___,0,$000
 dn ___,0,$000
 dn ___,0,$000
 dn ___,0,$000
 dn ___,0,$000
 dn ___,0,$000
 dn ___,0,$000
 dn ___,0,$000
 dn ___,0,$000
 dn ___,0,$000
 dn ___,0,$000
 dn ___,0,$000
 dn ___,0,$000
 dn ___,0,$000
 dn ___,0,$000
 dn ___,0,$000
 dn ___,0,$000
 dn ___,0,$000
 dn ___,0,$000
 dn ___,0,$000
 dn ___,0,$000
 dn ___,0,$000
 dn ___,0,$000
 dn ___,0,$000
 dn ___,0,$000
 dn ___,0,$000
 dn ___,0,$000
 dn ___,0,$000

dead_theme_P35:
 dn F_3,1,$000
 dn ___,0,$000
 dn ___,0,$000
 dn F_4,6,$000
 dn F_3,6,$000
 dn F_6,2,$000
 dn C_6,3,$000
 dn F_3,3,$000
 dn ___,0,$C00
 dn ___,0,$000
 dn F_6,3,$000
 dn G_6,3,$000
 dn E_6,3,$000
 dn ___,0,$481
 dn ___,0,$481
 dn ___,0,$462
 dn ___,0,$462
 dn ___,0,$20E
 dn F_5,1,$000
 dn ___,0,$000
 dn D#5,1,$000
 dn ___,0,$000
 dn B_4,1,$000
 dn ___,0,$000
 dn G#4,1,$000
 dn ___,0,$000
 dn G_4,1,$000
 dn ___,0,$000
 dn ___,0,$000
 dn G_4,3,$000
 dn ___,0,$000
 dn C_4,1,$000
 dn ___,0,$000
 dn C_4,2,$000
 dn C_4,3,$B00
 dn ___,0,$000
 dn ___,0,$000
 dn ___,0,$000
 dn ___,0,$000
 dn ___,0,$000
 dn ___,0,$000
 dn ___,0,$000
 dn ___,0,$000
 dn ___,0,$000
 dn ___,0,$000
 dn ___,0,$000
 dn ___,0,$000
 dn ___,0,$000
 dn ___,0,$000
 dn ___,0,$000
 dn ___,0,$000
 dn ___,0,$000
 dn ___,0,$000
 dn ___,0,$000
 dn ___,0,$000
 dn ___,0,$000
 dn ___,0,$000
 dn ___,0,$000
 dn ___,0,$000
 dn ___,0,$000
 dn ___,0,$000
 dn ___,0,$000
 dn ___,0,$000
 dn ___,0,$000

dead_theme_P36:
 dn G#4,1,$F05
 dn ___,0,$000
 dn ___,0,$233
 dn F_6,2,$000
 dn G_5,7,$F0A
 dn ___,0,$000
 dn B_5,7,$000
 dn ___,0,$000
 dn C#5,7,$000
 dn ___,0,$000
 dn C_5,7,$000
 dn ___,0,$000
 dn C_5,3,$C01
 dn ___,0,$481
 dn ___,0,$481
 dn ___,0,$462
 dn ___,0,$462
 dn ___,0,$20A
 dn C_6,7,$000
 dn ___,0,$000
 dn G_5,7,$000
 dn ___,0,$000
 dn F_5,7,$000
 dn ___,0,$000
 dn C_5,7,$000
 dn ___,0,$000
 dn A#4,7,$000
 dn ___,0,$000
 dn A#4,3,$000
 dn G_5,3,$F05
 dn ___,0,$000
 dn G#4,7,$F0A
 dn ___,0,$000
 dn G#4,3,$000
 dn G#5,3,$000
 dn ___,0,$000
 dn ___,0,$000
 dn ___,0,$000
 dn ___,0,$000
 dn ___,0,$000
 dn ___,0,$000
 dn ___,0,$000
 dn ___,0,$000
 dn ___,0,$000
 dn ___,0,$000
 dn ___,0,$000
 dn ___,0,$000
 dn ___,0,$000
 dn ___,0,$000
 dn ___,0,$000
 dn ___,0,$000
 dn ___,0,$000
 dn ___,0,$000
 dn ___,0,$000
 dn ___,0,$000
 dn ___,0,$000
 dn ___,0,$000
 dn ___,0,$000
 dn ___,0,$000
 dn ___,0,$000
 dn ___,0,$000
 dn ___,0,$000
 dn ___,0,$000
 dn ___,0,$000

dead_theme_P37:
 dn F_7,10,$000
 dn ___,0,$481
 dn ___,0,$481
 dn ___,0,$210
 dn C_7,10,$000
 dn ___,0,$000
 dn F_7,10,$000
 dn ___,0,$C00
 dn F_7,10,$000
 dn G_7,10,$000
 dn E_7,10,$000
 dn ___,0,$000
 dn ___,0,$481
 dn ___,0,$481
 dn ___,0,$208
 dn ___,0,$C00
 dn ___,0,$000
 dn ___,0,$000
 dn F_7,10,$000
 dn ___,0,$481
 dn D#7,10,$000
 dn ___,0,$481
 dn B_6,10,$000
 dn ___,0,$481
 dn G#6,10,$000
 dn ___,0,$461
 dn G_6,10,$000
 dn ___,0,$481
 dn ___,0,$481
 dn ___,0,$481
 dn ___,0,$C00
 dn G#6,10,$000
 dn ___,0,$481
 dn ___,0,$462
 dn ___,0,$C00
 dn ___,0,$000
 dn ___,0,$000
 dn ___,0,$000
 dn ___,0,$000
 dn ___,0,$000
 dn ___,0,$000
 dn ___,0,$000
 dn ___,0,$000
 dn ___,0,$000
 dn ___,0,$000
 dn ___,0,$000
 dn ___,0,$000
 dn ___,0,$000
 dn ___,0,$000
 dn ___,0,$000
 dn ___,0,$000
 dn ___,0,$000
 dn ___,0,$000
 dn ___,0,$000
 dn ___,0,$000
 dn ___,0,$000
 dn ___,0,$000
 dn ___,0,$000
 dn ___,0,$000
 dn ___,0,$000
 dn ___,0,$000
 dn ___,0,$000
 dn ___,0,$000
 dn ___,0,$000

dead_theme_P38:
 dn F_3,4,$000
 dn ___,0,$000
 dn ___,0,$000
 dn F_3,2,$000
 dn C_4,1,$F0A
 dn ___,0,$000
 dn C#3,4,$000
 dn ___,0,$000
 dn G_4,1,$000
 dn G_5,2,$000
 dn C_3,4,$000
 dn ___,0,$000
 dn F_3,4,$000
 dn E_3,4,$000
 dn F_3,4,$000
 dn ___,0,$000
 dn G_3,4,$000
 dn ___,0,$000
 dn G#3,4,$000
 dn ___,0,$000
 dn C_4,1,$000
 dn C_4,3,$000
 dn C#4,4,$000
 dn ___,0,$000
 dn B_4,1,$000
 dn ___,0,$000
 dn C_4,6,$C0A
 dn ___,0,$000
 dn ___,0,$220
 dn E_3,6,$C08
 dn F_3,6,$C08
 dn E_3,6,$C0C
 dn C_3,6,$C0C
 dn D#3,6,$C0C
 dn E_3,6,$C0C
 dn ___,0,$000
 dn ___,0,$000
 dn ___,0,$000
 dn ___,0,$000
 dn ___,0,$000
 dn ___,0,$000
 dn ___,0,$000
 dn ___,0,$000
 dn ___,0,$000
 dn ___,0,$000
 dn ___,0,$000
 dn ___,0,$000
 dn ___,0,$000
 dn ___,0,$000
 dn ___,0,$000
 dn ___,0,$000
 dn ___,0,$000
 dn ___,0,$000
 dn ___,0,$000
 dn ___,0,$000
 dn ___,0,$000
 dn ___,0,$000
 dn ___,0,$000
 dn ___,0,$000
 dn ___,0,$000
 dn ___,0,$000
 dn ___,0,$000
 dn ___,0,$000
 dn ___,0,$000

dead_theme_P39:
 dn G#4,1,$F05
 dn ___,0,$000
 dn ___,0,$000
 dn G#4,3,$000
 dn ___,0,$000
 dn F_5,2,$000
 dn A#4,1,$000
 dn ___,0,$000
 dn G_5,2,$000
 dn F_4,1,$000
 dn E_4,1,$000
 dn ___,0,$000
 dn G#4,1,$000
 dn G_4,1,$000
 dn G#4,1,$000
 dn G#4,3,$000
 dn F_4,6,$C08
 dn E_4,6,$C08
 dn F_4,6,$C08
 dn F_4,3,$000
 dn G_4,1,$000
 dn ___,0,$000
 dn F_4,6,$C08
 dn F_4,3,$000
 dn G_4,1,$000
 dn ___,0,$000
 dn E_4,1,$000
 dn ___,0,$000
 dn E_4,3,$000
 dn G_4,1,$F05
 dn G#4,6,$C08
 dn G_4,1,$F0A
 dn ___,0,$000
 dn D#4,1,$000
 dn B_4,1,$B00
 dn ___,0,$000
 dn ___,0,$000
 dn ___,0,$000
 dn ___,0,$000
 dn ___,0,$000
 dn ___,0,$000
 dn ___,0,$000
 dn ___,0,$000
 dn ___,0,$000
 dn ___,0,$000
 dn ___,0,$000
 dn ___,0,$000
 dn ___,0,$000
 dn ___,0,$000
 dn ___,0,$000
 dn ___,0,$000
 dn ___,0,$000
 dn ___,0,$000
 dn ___,0,$000
 dn ___,0,$000
 dn ___,0,$000
 dn ___,0,$000
 dn ___,0,$000
 dn ___,0,$000
 dn ___,0,$000
 dn ___,0,$000
 dn ___,0,$000
 dn ___,0,$000
 dn ___,0,$000

dead_theme_P40:
 dn F_6,7,$000
 dn ___,0,$481
 dn ___,0,$462
 dn ___,0,$462
 dn G_6,7,$377
 dn G#6,7,$377
 dn F_6,7,$377
 dn G_6,7,$377
 dn D#6,7,$377
 dn C#6,7,$377
 dn C_6,7,$377
 dn ___,0,$000
 dn ___,0,$462
 dn ___,0,$462
 dn ___,0,$20D
 dn ___,0,$C00
 dn C_7,7,$000
 dn A#6,7,$000
 dn G#6,7,$000
 dn ___,0,$481
 dn G_6,7,$000
 dn ___,0,$481
 dn A#6,7,$000
 dn ___,0,$481
 dn B_6,7,$000
 dn ___,0,$461
 dn C_7,7,$000
 dn ___,0,$461
 dn ___,0,$461
 dn ___,0,$482
 dn ___,0,$C00
 dn A#6,7,$000
 dn ___,0,$462
 dn ___,0,$208
 dn ___,0,$C00
 dn ___,0,$000
 dn ___,0,$000
 dn ___,0,$000
 dn ___,0,$000
 dn ___,0,$000
 dn ___,0,$000
 dn ___,0,$000
 dn ___,0,$000
 dn ___,0,$000
 dn ___,0,$000
 dn ___,0,$000
 dn ___,0,$000
 dn ___,0,$000
 dn ___,0,$000
 dn ___,0,$000
 dn ___,0,$000
 dn ___,0,$000
 dn ___,0,$000
 dn ___,0,$000
 dn ___,0,$000
 dn ___,0,$000
 dn ___,0,$000
 dn ___,0,$000
 dn ___,0,$000
 dn ___,0,$000
 dn ___,0,$000
 dn ___,0,$000
 dn ___,0,$000
 dn ___,0,$000

dead_theme_P41:
 dn F_3,4,$000
 dn ___,0,$000
 dn ___,0,$000
 dn F_4,6,$C08
 dn C_4,1,$000
 dn ___,0,$000
 dn C#3,4,$000
 dn ___,0,$000
 dn G#4,1,$000
 dn ___,0,$000
 dn C_3,4,$000
 dn ___,0,$000
 dn C_3,2,$000
 dn E_3,4,$000
 dn G_3,4,$000
 dn G#3,4,$000
 dn A#3,4,$000
 dn ___,0,$000
 dn G#3,4,$000
 dn ___,0,$000
 dn G_3,4,$000
 dn ___,0,$000
 dn C#4,4,$000
 dn ___,0,$000
 dn C_4,4,$000
 dn ___,0,$000
 dn A#3,4,$000
 dn ___,0,$000
 dn C_3,4,$000
 dn ___,0,$000
 dn ___,0,$000
 dn C_4,4,$000
 dn ___,0,$000
 dn ___,0,$000
 dn C_3,2,$000
 dn F_3,4,$000
 dn ___,0,$000
 dn ___,0,$000
 dn ___,0,$000
 dn ___,0,$000
 dn ___,0,$000
 dn ___,0,$000
 dn ___,0,$000
 dn ___,0,$000
 dn ___,0,$000
 dn ___,0,$000
 dn ___,0,$000
 dn ___,0,$000
 dn ___,0,$000
 dn ___,0,$000
 dn ___,0,$000
 dn ___,0,$000
 dn ___,0,$000
 dn ___,0,$000
 dn ___,0,$000
 dn ___,0,$000
 dn ___,0,$000
 dn ___,0,$000
 dn ___,0,$000
 dn ___,0,$000
 dn ___,0,$000
 dn ___,0,$000
 dn ___,0,$000
 dn ___,0,$000

dead_theme_P42:
 dn C_5,1,$F05
 dn ___,0,$000
 dn ___,0,$000
 dn F_6,2,$000
 dn G_4,6,$000
 dn F_6,2,$000
 dn B_4,1,$000
 dn ___,0,$000
 dn C#4,6,$000
 dn ___,0,$000
 dn G_4,1,$000
 dn ___,0,$000
 dn ___,0,$000
 dn G_4,3,$000
 dn ___,0,$20D
 dn E_6,2,$000
 dn ___,0,$481
 dn ___,0,$208
 dn C_5,6,$000
 dn ___,0,$000
 dn D#5,1,$000
 dn ___,0,$000
 dn F_4,1,$000
 dn ___,0,$000
 dn G#4,1,$000
 dn ___,0,$000
 dn E_4,1,$000
 dn ___,0,$000
 dn ___,0,$000
 dn G_5,3,$000
 dn ___,0,$000
 dn F_4,1,$000
 dn ___,0,$000
 dn F_4,2,$000
 dn G#5,3,$000
 dn G#4,1,$000
 dn ___,0,$000
 dn G#4,2,$000
 dn ___,0,$000
 dn G#4,3,$000
 dn ___,0,$C00
 dn ___,0,$000
 dn ___,0,$000
 dn ___,0,$000
 dn ___,0,$000
 dn ___,0,$000
 dn ___,0,$000
 dn ___,0,$000
 dn ___,0,$000
 dn ___,0,$000
 dn ___,0,$000
 dn ___,0,$000
 dn ___,0,$000
 dn ___,0,$000
 dn ___,0,$000
 dn ___,0,$000
 dn ___,0,$000
 dn ___,0,$000
 dn ___,0,$000
 dn ___,0,$000
 dn ___,0,$000
 dn ___,0,$000
 dn ___,0,$000
 dn ___,0,$000

dead_theme_P43:
 dn F_7,7,$000
 dn ___,0,$481
 dn ___,0,$481
 dn ___,0,$481
 dn C_7,7,$F0A
 dn ___,0,$000
 dn F_7,7,$000
 dn ___,0,$C00
 dn F_7,7,$377
 dn G_7,7,$377
 dn E_7,7,$000
 dn ___,0,$000
 dn ___,0,$461
 dn ___,0,$4B1
 dn ___,0,$206
 dn ___,0,$C00
 dn ___,0,$000
 dn ___,0,$000
 dn F_7,7,$000
 dn ___,0,$481
 dn D#7,7,$000
 dn ___,0,$481
 dn B_6,7,$000
 dn ___,0,$481
 dn G#6,7,$000
 dn ___,0,$481
 dn G_6,7,$000
 dn ___,0,$481
 dn ___,0,$481
 dn ___,0,$482
 dn ___,0,$C00
 dn G#6,7,$000
 dn ___,0,$481
 dn ___,0,$462
 dn G_6,7,$000
 dn G#6,7,$000
 dn ___,0,$461
 dn ___,0,$461
 dn ___,0,$461
 dn ___,0,$C00
 dn ___,0,$000
 dn ___,0,$000
 dn ___,0,$000
 dn ___,0,$000
 dn ___,0,$000
 dn ___,0,$000
 dn ___,0,$000
 dn ___,0,$000
 dn ___,0,$000
 dn ___,0,$000
 dn ___,0,$000
 dn ___,0,$000
 dn ___,0,$000
 dn ___,0,$000
 dn ___,0,$000
 dn ___,0,$000
 dn ___,0,$000
 dn ___,0,$000
 dn ___,0,$000
 dn ___,0,$000
 dn ___,0,$000
 dn ___,0,$000
 dn ___,0,$000
 dn ___,0,$000

dead_theme_P44:
 dn ___,0,$000
 dn ___,0,$000
 dn ___,0,$000
 dn ___,0,$000
 dn ___,0,$000
 dn ___,0,$000
 dn ___,0,$000
 dn ___,0,$000
 dn ___,0,$000
 dn ___,0,$000
 dn ___,0,$000
 dn ___,0,$000
 dn ___,0,$000
 dn ___,0,$000
 dn ___,0,$000
 dn ___,0,$000
 dn ___,0,$000
 dn ___,0,$000
 dn ___,0,$000
 dn ___,0,$000
 dn ___,0,$000
 dn ___,0,$000
 dn ___,0,$000
 dn ___,0,$000
 dn ___,0,$000
 dn ___,0,$F0B
 dn ___,0,$F0B
 dn ___,0,$000
 dn ___,0,$F0C
 dn ___,0,$F06
 dn ___,0,$F07
 dn ___,0,$F0B
 dn ___,0,$000
 dn ___,0,$F0E
 dn ___,0,$F0F
 dn ___,0,$F0A
 dn ___,0,$000
 dn ___,0,$000
 dn ___,0,$000
 dn ___,0,$000
 dn ___,0,$000
 dn ___,0,$F20
 dn ___,0,$000
 dn ___,0,$000
 dn ___,0,$000
 dn ___,0,$000
 dn ___,0,$000
 dn ___,0,$000
 dn ___,0,$000
 dn ___,0,$000
 dn ___,0,$000
 dn ___,0,$000
 dn ___,0,$000
 dn ___,0,$000
 dn ___,0,$000
 dn ___,0,$000
 dn ___,0,$000
 dn ___,0,$000
 dn ___,0,$000
 dn ___,0,$000
 dn ___,0,$000
 dn ___,0,$000
 dn ___,0,$000
 dn ___,0,$000

dead_theme_itSquareSP1:
 dn 36,0,$9D0
 dn 36,0,$C04
 dn 36,0,$C09
 dn ___,0,$9C0
 dn ___,0,$9B1
 dn ___,0,$9A2
 dn ___,0,$994
 dn ___,0,$985
 dn ___,0,$976
 dn ___,0,$968
 dn ___,0,$959
 dn ___,0,$94A
 dn ___,0,$93C
 dn ___,0,$92D
 dn ___,0,$91E
 dn ___,0,$910
 dn ___,0,$91E
 dn ___,0,$92B
 dn ___,0,$939
 dn ___,0,$947
 dn ___,0,$954
 dn ___,0,$962
 dn ___,0,$970
 dn ___,0,$97D
 dn ___,0,$98B
 dn ___,0,$999
 dn ___,0,$9A6
 dn ___,0,$9B4
 dn ___,0,$9C2
 dn ___,0,$9D0
 dn ___,0,$462
 dn ___,30,$000

dead_theme_itSquareSP4:
 dn 36,0,$C06
 dn ___,0,$922
 dn ___,0,$C0C
 dn ___,0,$900
 dn ___,0,$205
 dn ___,0,$922
 dn ___,0,$463
 dn ___,0,$944
 dn ___,0,$463
 dn ___,9,$000
 dn ___,0,$000
 dn ___,0,$000
 dn ___,0,$000
 dn ___,0,$000
 dn ___,0,$000
 dn ___,0,$000
 dn ___,0,$000
 dn ___,0,$000
 dn ___,0,$000
 dn ___,0,$000
 dn ___,0,$000
 dn ___,0,$000
 dn ___,0,$000
 dn ___,0,$000
 dn ___,0,$000
 dn ___,0,$000
 dn ___,0,$000
 dn ___,0,$000
 dn ___,0,$000
 dn ___,0,$000
 dn ___,0,$000
 dn ___,1,$000

dead_theme_itSquareSP5:
 dn ___,0,$9A0
 dn ___,0,$98C
 dn ___,0,$978
 dn ___,0,$964
 dn ___,0,$952
 dn ___,0,$903
 dn ___,0,$928
 dn ___,0,$914
 dn ___,0,$900
 dn ___,0,$950
 dn ___,0,$990
 dn ___,0,$000
 dn ___,0,$204
 dn ___,0,$204
 dn ___,0,$104
 dn ___,0,$104
 dn ___,0,$240
 dn ___,0,$140
 dn ___,0,$000
 dn ___,0,$000
 dn ___,0,$000
 dn ___,0,$000
 dn ___,0,$000
 dn ___,0,$000
 dn ___,0,$000
 dn ___,0,$000
 dn ___,0,$000
 dn ___,0,$000
 dn ___,0,$000
 dn ___,0,$000
 dn ___,0,$000
 dn ___,1,$000

dead_theme_itSquareSP6:
 dn 24,0,$910
 dn 36,0,$91C
 dn 36,0,$929
 dn ___,0,$936
 dn ___,0,$943
 dn ___,0,$950
 dn ___,0,$95C
 dn ___,0,$969
 dn ___,0,$976
 dn ___,0,$983
 dn ___,0,$990
 dn ___,0,$000
 dn ___,0,$201
 dn ___,0,$201
 dn ___,0,$101
 dn ___,0,$101
 dn ___,0,$201
 dn ___,0,$201
 dn ___,0,$101
 dn ___,0,$101
 dn ___,0,$201
 dn ___,0,$201
 dn ___,0,$000
 dn ___,0,$000
 dn ___,0,$000
 dn ___,0,$000
 dn ___,0,$000
 dn ___,0,$000
 dn ___,0,$000
 dn ___,0,$000
 dn ___,0,$000
 dn ___,1,$000

dead_theme_itSquareSP7:
 dn 36,0,$900
 dn ___,0,$938
 dn ___,0,$970
 dn ___,0,$000
 dn ___,0,$900
 dn ___,0,$000
 dn ___,0,$9A0
 dn ___,0,$201
 dn ___,0,$980
 dn ___,0,$101
 dn ___,0,$930
 dn ___,0,$000
 dn ___,0,$920
 dn ___,0,$000
 dn ___,0,$910
 dn ___,0,$000
 dn ___,0,$000
 dn ___,0,$000
 dn ___,0,$920
 dn ___,0,$000
 dn ___,0,$000
 dn ___,0,$000
 dn ___,0,$000
 dn ___,0,$000
 dn ___,0,$000
 dn ___,0,$000
 dn ___,0,$000
 dn ___,0,$000
 dn ___,0,$000
 dn ___,0,$000
 dn ___,0,$000
 dn ___,1,$000

dead_theme_itWaveSP1:
 dn 48,0,$930
 dn 36,0,$000
 dn ___,0,$970
 dn ___,0,$000
 dn ___,0,$4A1
 dn ___,0,$C09
 dn ___,0,$4A1
 dn ___,0,$902
 dn ___,0,$202
 dn ___,0,$101
 dn ___,0,$101
 dn ___,0,$903
 dn ___,0,$C04
 dn ___,0,$461
 dn ___,0,$461
 dn ___,0,$461
 dn ___,15,$000
 dn ___,0,$000
 dn ___,0,$000
 dn ___,0,$000
 dn ___,0,$000
 dn ___,0,$000
 dn ___,0,$000
 dn ___,0,$000
 dn ___,0,$000
 dn ___,0,$000
 dn ___,0,$000
 dn ___,0,$000
 dn ___,0,$000
 dn ___,0,$000
 dn ___,0,$000
 dn ___,1,$000

dead_theme_itWaveSP5:
 dn 48,0,$C05
 dn ___,0,$000
 dn ___,0,$C07
 dn ___,0,$000
 dn ___,0,$C05
 dn ___,0,$000
 dn ___,0,$C02
 dn ___,0,$000
 dn ___,0,$C04
 dn ___,0,$000
 dn ___,0,$C03
 dn ___,0,$C02
 dn ___,0,$C01
 dn ___,0,$000
 dn ___,0,$000
 dn ___,0,$000
 dn ___,0,$000
 dn ___,0,$000
 dn ___,0,$000
 dn ___,0,$000
 dn ___,0,$000
 dn ___,0,$000
 dn ___,0,$000
 dn ___,0,$000
 dn ___,0,$000
 dn ___,0,$000
 dn ___,0,$000
 dn ___,0,$000
 dn ___,0,$000
 dn ___,0,$000
 dn ___,29,$000
 dn ___,1,$000

dead_theme_duty_instruments:
dead_theme_itSquareinst1:
db 8
db 192
db 116
dw dead_theme_itSquareSP1
db 128

dead_theme_itSquareinst2:
db 8
db 0
db 32
dw 0
db 128

dead_theme_itSquareinst3:
db 8
db 0
db 16
dw 0
db 128

dead_theme_itSquareinst4:
db 8
db 151
db 197
dw dead_theme_itSquareSP4
db 128

dead_theme_itSquareinst5:
db 8
db 128
db 116
dw dead_theme_itSquareSP5
db 128

dead_theme_itSquareinst6:
db 12
db 202
db 131
dw dead_theme_itSquareSP6
db 192

dead_theme_itSquareinst7:
db 8
db 0
db 116
dw dead_theme_itSquareSP7
db 128



dead_theme_wave_instruments:
dead_theme_itWaveinst1:
db 47
db 32
db 0
dw dead_theme_itWaveSP1
db 192

dead_theme_itWaveinst2:
db 0
db 96
db 0
dw 0
db 128

dead_theme_itWaveinst3:
db 0
db 96
db 0
dw 0
db 128

dead_theme_itWaveinst4:
db 69
db 32
db 3
dw 0
db 128

dead_theme_itWaveinst5:
db 71
db 64
db 4
dw dead_theme_itWaveSP5
db 192

dead_theme_itWaveinst6:
db 0
db 32
db 5
dw 0
db 128

dead_theme_itWaveinst7:
db 173
db 32
db 5
dw 0
db 128

dead_theme_itWaveinst8:
db 0
db 96
db 5
dw 0
db 128

dead_theme_itWaveinst9:
db 0
db 32
db 8
dw 0
db 128

dead_theme_itWaveinst10:
db 0
db 32
db 6
dw 0
db 128



dead_theme_noise_instruments:


dead_theme_routines:
dead_theme__hUGE_Routine_0:

dead_theme__end_hUGE_Routine_0:
ret

dead_theme__hUGE_Routine_1:

dead_theme__end_hUGE_Routine_1:
ret

dead_theme__hUGE_Routine_2:

dead_theme__end_hUGE_Routine_2:
ret

dead_theme__hUGE_Routine_3:

dead_theme__end_hUGE_Routine_3:
ret

dead_theme__hUGE_Routine_4:

dead_theme__end_hUGE_Routine_4:
ret

dead_theme__hUGE_Routine_5:

dead_theme__end_hUGE_Routine_5:
ret

dead_theme__hUGE_Routine_6:

dead_theme__end_hUGE_Routine_6:
ret

dead_theme__hUGE_Routine_7:

dead_theme__end_hUGE_Routine_7:
ret

dead_theme__hUGE_Routine_8:

dead_theme__end_hUGE_Routine_8:
ret

dead_theme__hUGE_Routine_9:

dead_theme__end_hUGE_Routine_9:
ret

dead_theme__hUGE_Routine_10:

dead_theme__end_hUGE_Routine_10:
ret

dead_theme__hUGE_Routine_11:

dead_theme__end_hUGE_Routine_11:
ret

dead_theme__hUGE_Routine_12:

dead_theme__end_hUGE_Routine_12:
ret

dead_theme__hUGE_Routine_13:

dead_theme__end_hUGE_Routine_13:
ret

dead_theme__hUGE_Routine_14:

dead_theme__end_hUGE_Routine_14:
ret

dead_theme__hUGE_Routine_15:

dead_theme__end_hUGE_Routine_15:
ret

dead_theme_waves:
dead_theme_wave0: db 19,84,49,120,239,255,254,188,221,221,220,203,205,238,238,236
dead_theme_wave1: db 0,0,0,0,255,255,255,255,255,255,255,255,255,255,255,255
dead_theme_wave2: db 0,0,0,0,0,0,0,0,255,255,255,255,255,255,255,255
dead_theme_wave3: db 0,0,0,0,0,0,0,0,0,0,0,0,255,255,255,255
dead_theme_wave4: db 0,1,18,35,52,69,86,103,120,137,154,171,188,205,222,239
dead_theme_wave5: db 138,152,67,6,132,33,0,0,1,16,0,0,1,19,121,252
dead_theme_wave6: db 101,51,51,69,120,188,221,238,238,220,187,189,238,237,169,135
dead_theme_wave7: db 15,15,15,15,15,15,15,15,15,15,15,15,15,15,15,15
dead_theme_wave8: db 254,252,250,248,246,244,242,240,242,244,246,248,250,252,254,255
dead_theme_wave9: db 254,221,204,187,170,153,136,119,138,189,241,36,87,138,189,238
dead_theme_wave10: db 132,17,97,237,87,71,90,173,206,163,23,121,221,32,3,71
dead_theme_wave11: db 56,157,233,115,25,129,199,152,81,192,113,110,151,216,165,178
dead_theme_wave12: db 199,231,110,6,208,211,91,226,99,189,235,89,0,91,68,5
dead_theme_wave13: db 116,55,187,141,170,5,34,22,69,119,151,188,136,212,27,4
dead_theme_wave14: db 128,182,102,53,76,129,43,34,115,129,231,184,6,123,103,134
dead_theme_wave15: db 53,145,180,69,156,92,112,145,196,161,200,19,136,133,53,40
dead_theme_wave16: db 659,410,4095,0,275,410,4095,0,16,0,4095,0,1792,0,0,0
dead_theme_wave17: db 3350,410,4095,0,3035,410,4095,0,240,0,0,0,2011,1405,1791,0
dead_theme_wave18: db 3360,1344,0,0,273,410,4095,0,527,1776,0,0,0,0,0,0
dead_theme_wave19: db 4042,3199,1791,0,48,953,784,0,288,0,4095,0,176,0,0,0
dead_theme_wave20: db 923,2303,1791,0,3031,1040,0,0,442,3199,1791,0,2794,1056,0,0
dead_theme_wave21: db 16,0,0,0,16,0,0,0,1705,2304,0,0,3747,1056,0,0
dead_theme_wave22: db 1705,2304,0,0,2288,1040,0,0,131,4093,1791,0,3035,410,4095,0
dead_theme_wave23: db 240,0,0,0,2011,1405,1791,0,3360,1344,0,0,3837,0,0,0
dead_theme_wave24: db 0,0,0,0,32,0,0,0,3360,1344,0,0,2476,2304,0,0
dead_theme_wave25: db 2057,0,0,0,0,0,0,0,131,4093,1791,0,2035,1136,0,0
dead_theme_wave26: db 131,4093,1791,0,243,1136,0,0,0,0,0,0,2011,1405,1791,0
dead_theme_wave27: db 240,0,0,0,923,2303,1791,0,1688,410,4095,0,1266,1136,0,0
dead_theme_wave28: db 3360,1344,0,0,2011,1405,1791,0,240,0,0,0,3035,410,4095,0
dead_theme_wave29: db 131,4093,1791,0,921,1776,0,0,0,0,0,0,2476,3173,1791,0
dead_theme_wave30: db 0,0,0,0,3042,2448,0,0,249,116,1791,0,472,3966,1791,0
dead_theme_wave31: db 4095,4095,3063,0,1,0,0,0,0,0,0,0,0,0,0,0
dead_theme_wave32: db 0,0,0,0,1623,410,4095,0,0,0,0,0,384,1056,0,0
dead_theme_wave33: db 1920,1056,0,0,0,0,0,0,1043,410,4095,0,0,0,0,0
dead_theme_wave34: db 0,0,0,0,0,0,0,0,0,0,0,0,0,0,0,0
dead_theme_wave35: db 0,0,0,0,0,0,0,0,0,0,0,0,0,0,0,0
dead_theme_wave36: db 0,0,0,0,0,0,0,0,0,0,0,0,0,0,0,0
dead_theme_wave37: db 0,0,0,0,0,0,0,0,0,0,0,0,0,0,0,0
dead_theme_wave38: db 0,0,0,0,0,0,0,0,0,0,0,0,0,0,0,0
dead_theme_wave39: db 0,0,0,0,0,0,0,0,0,0,0,0,0,0,0,0
dead_theme_wave40: db 0,0,0,0,0,0,0,0,0,0,0,0,0,0,0,0
dead_theme_wave41: db 0,0,0,0,0,0,0,0,0,0,0,0,0,0,0,0
dead_theme_wave42: db 0,0,0,0,0,0,0,0,0,0,0,0,0,0,0,0
dead_theme_wave43: db 0,0,0,0,0,0,0,0,0,0,0,0,0,0,0,0
dead_theme_wave44: db 0,0,0,0,0,0,0,0,0,0,0,0,0,0,0,0
dead_theme_wave45: db 0,0,0,0,0,0,0,0,0,0,0,0,0,0,0,0
dead_theme_wave46: db 0,0,0,0,0,0,0,0,0,0,0,0,0,0,0,0
dead_theme_wave47: db 0,0,0,0,0,0,0,0,0,0,0,0,0,0,0,0
dead_theme_wave48: db 0,0,0,0,0,0,0,0,0,0,0,0,0,0,0,0
dead_theme_wave49: db 0,0,0,0,0,0,0,0,0,0,0,0,0,0,0,0
dead_theme_wave50: db 0,0,0,0,0,0,0,0,26,0,1780,1393,1893,0,0,0
dead_theme_wave51: db 0,0,0,0,0,0,0,0,0,0,0,0,0,0,0,0
dead_theme_wave52: db 0,0,0,0,0,0,0,0,0,0,0,0,0,0,0,0
dead_theme_wave53: db 0,0,0,0,0,0,0,0,0,0,0,0,0,0,0,0
dead_theme_wave54: db 0,0,0,0,0,0,0,0,0,0,0,0,0,0,0,0
dead_theme_wave55: db 0,0,0,0,0,0,0,0,0,0,0,0,0,0,0,0
dead_theme_wave56: db 0,0,0,0,0,0,0,0,0,0,0,0,0,0,0,0
dead_theme_wave57: db 0,0,0,0,0,0,0,0,0,0,0,0,0,0,0,0
dead_theme_wave58: db 0,0,0,0,0,0,0,0,0,0,3837,0,442,3199,1791,0
dead_theme_wave59: db 49,863,1791,0,3998,2271,1791,0,0,0,0,0,0,0,0,0
dead_theme_wave60: db 2478,2304,0,0,0,0,0,0,0,0,0,0,0,0,96,0
dead_theme_wave61: db 253,1790,1781,2035,623,1760,1777,1907,1780,0,0,0,0,0,0,0
dead_theme_wave62: db 0,0,0,0,0,0,0,0,0,0,0,0,0,0,0,0
dead_theme_wave63: db 0,0,0,0,0,0,0,0,0,0,0,0,0,0,0,0
dead_theme_wave64: db 0,0,0,0,0,0,0,0,0,0,0,0,0,0,0,0
dead_theme_wave65: db 0,0,0,0,0,0,0,0,0,0,0,0,0,0,0,0
dead_theme_wave66: db 0,0,0,0,0,0,0,0,0,0,0,0,0,0,0,0
dead_theme_wave67: db 1433,3423,1791,0,1196,2304,0,0,472,3966,1791,0,1705,2304,0,0
dead_theme_wave68: db 3486,3423,1791,0,16,0,96,0,0,0,0,0,0,0,0,0
dead_theme_wave69: db 0,0,0,0,0,0,0,0,0,0,0,0,0,0,0,0
dead_theme_wave70: db 0,0,0,0,0,0,0,0,0,0,0,0,0,0,0,0
dead_theme_wave71: db 0,0,0,0,0,0,0,0,0,0,0,0,0,0,0,0
dead_theme_wave72: db 0,0,0,0,0,0,0,0,0,0,0,0,0,0,0,0
dead_theme_wave73: db 0,0,0,0,0,0,0,0,0,0,0,0,0,0,0,0
dead_theme_wave74: db 0,0,0,0,0,0,0,0,0,0,0,0,0,0,0,0
dead_theme_wave75: db 0,0,0,0,0,0,0,0,0,0,0,0,0,0,0,0
dead_theme_wave76: db 0,0,0,0,0,0,0,0,0,0,0,0,0,0,0,0
dead_theme_wave77: db 0,0,0,0,0,0,0,0,0,0,0,0,0,0,0,0
dead_theme_wave78: db 0,0,0,0,0,0,0,0,0,0,0,0,0,0,0,0
dead_theme_wave79: db 0,0,0,0,0,0,0,0,0,0,0,0,0,0,0,0
dead_theme_wave80: db 0,0,0,0,0,0,0,0,0,0,0,0,0,0,0,0
dead_theme_wave81: db 0,0,0,0,0,0,0,0,0,0,0,0,0,0,0,0
dead_theme_wave82: db 0,0,0,0,0,0,0,0,0,0,0,0,0,0,0,0
dead_theme_wave83: db 0,0,0,0,0,0,0,0,0,0,0,0,0,0,0,0
dead_theme_wave84: db 0,0,0,0,0,0,0,0,371,1789,1903,1909,1632,1657,628,1661
dead_theme_wave85: db 1893,1908,823,630,1650,1777,1652,1791,0,0,0,0,0,0,0,0
dead_theme_wave86: db 0,0,0,0,0,0,0,0,0,0,0,0,0,0,0,0
dead_theme_wave87: db 0,0,0,0,0,0,0,0,0,0,0,0,0,0,0,0
dead_theme_wave88: db 0,0,0,0,0,0,0,0,0,0,0,0,0,0,0,0
dead_theme_wave89: db 0,0,0,0,0,0,0,0,0,0,0,0,0,0,0,0
dead_theme_wave90: db 0,0,0,0,0,0,0,0,0,0,0,0,0,0,0,0
dead_theme_wave91: db 0,0,0,0,0,0,0,0,0,0,0,0,0,0,0,0
dead_theme_wave92: db 0,0,0,0,0,0,0,0,0,0,245,1777,624,1650,1907,1919
dead_theme_wave93: db 1780,1790,0,0,0,0,0,0,0,0,0,0,0,0,0,0
dead_theme_wave94: db 0,0,0,0,0,0,0,0,0,0,0,0,0,0,0,0
dead_theme_wave95: db 0,0,0,0,0,0,0,0,0,0,0,0,0,0,0,0
dead_theme_wave96: db 0,0,0,0,0,0,0,0,0,0,0,0,0,0,0,0
dead_theme_wave97: db 0,0,0,0,0,0,0,0,0,0,0,0,0,0,0,0
dead_theme_wave98: db 0,0,0,0,0,0,0,0,0,0,0,0,0,0,0,0
dead_theme_wave99: db 0,0,0,0,0,0,0,0,0,0,0,0,0,0,0,0
dead_theme_wave100: db 0,0,0,0,0,0,0,0,0,0,0,0,7,16,0,64
dead_theme_wave101: db 0,1,0,0,0,3,16,0,0,0,0,0,52,0,0,0
dead_theme_wave102: db 0,0,9,0,208,576,0,0,0,0,0,192,0,100,0,0
dead_theme_wave103: db 0,0,0,12,0,9,1440,0,0,0,0,0,144,0,3162,0
dead_theme_wave104: db 0,0,0,0,9,0,177,1440,0,0,0,0,0,144,0,2682
dead_theme_wave105: db 0,0,0,0,0,9,0,148,1440,0,0,0,0,0,144,0
dead_theme_wave106: db 2138,0,0,0,0,0,9,0,118,1440,0,0,0,0,0,144
dead_theme_wave107: db 0,1754,0,0,0,0,0,9,0,89,1440,0,0,0,0,0
dead_theme_wave108: db 144,0,1274,0,0,0,0,0,9,0,60,1440,0,0,0,0
dead_theme_wave109: db 0,144,0,730,0,0,0,0,0,9,0,30,1440,0,0,0
dead_theme_wave110: db 0,0,144,0,346,0,0,0,0,0,9,0,30,1440,0,0
dead_theme_wave111: db 0,0,0,144,0,762,0,0,0,0,0,9,0,57,1440,0
dead_theme_wave112: db 0,0,0,0,144,0,1146,0,0,0,0,0,9,0,84,1440

