include "huge_driver/include/hUGE.inc"

SECTION "info_screen_theme Song Data", ROMX[$4000], BANK[5]

info_screen_theme::
db 5
dw info_screen_theme_order_cnt
dw info_screen_theme_order1, info_screen_theme_order2, info_screen_theme_order3, info_screen_theme_order4
dw info_screen_theme_duty_instruments, info_screen_theme_wave_instruments, info_screen_theme_noise_instruments
dw info_screen_theme_routines
dw info_screen_theme_waves

info_screen_theme_order_cnt: db 20
info_screen_theme_order1: dw info_screen_theme_P0,info_screen_theme_P0,info_screen_theme_P0,info_screen_theme_P0,info_screen_theme_P17,info_screen_theme_P21,info_screen_theme_P25,info_screen_theme_P29,info_screen_theme_P25,info_screen_theme_P33
info_screen_theme_order2: dw info_screen_theme_P1,info_screen_theme_P1,info_screen_theme_P13,info_screen_theme_P9,info_screen_theme_P18,info_screen_theme_P22,info_screen_theme_P26,info_screen_theme_P30,info_screen_theme_P26,info_screen_theme_P34
info_screen_theme_order3: dw info_screen_theme_P6,info_screen_theme_P2,info_screen_theme_P6,info_screen_theme_P6,info_screen_theme_P19,info_screen_theme_P23,info_screen_theme_P27,info_screen_theme_P31,info_screen_theme_P27,info_screen_theme_P35
info_screen_theme_order4: dw info_screen_theme_P3,info_screen_theme_P3,info_screen_theme_P3,info_screen_theme_P3,info_screen_theme_P3,info_screen_theme_P3,info_screen_theme_P3,info_screen_theme_P3,info_screen_theme_P3,info_screen_theme_P3

info_screen_theme_P0:
 dn G#4,1,$000
 dn ___,0,$000
 dn D#5,1,$000
 dn ___,0,$000
 dn C_5,1,$000
 dn ___,0,$000
 dn G_5,1,$000
 dn ___,0,$000
 dn D#5,1,$000
 dn ___,0,$000
 dn A#5,1,$000
 dn ___,0,$000
 dn G_5,1,$000
 dn ___,0,$000
 dn D_6,1,$000
 dn ___,0,$000
 dn A#5,1,$000
 dn ___,0,$000
 dn F_6,1,$000
 dn ___,0,$000
 dn D_6,1,$000
 dn ___,0,$000
 dn A#6,1,$000
 dn ___,0,$000
 dn G#6,1,$000
 dn ___,0,$000
 dn C#6,1,$000
 dn ___,0,$000
 dn F_6,1,$000
 dn ___,0,$000
 dn G#5,1,$000
 dn ___,0,$000
 dn C#6,1,$000
 dn ___,0,$000
 dn F_5,1,$000
 dn ___,0,$000
 dn G#5,1,$000
 dn ___,0,$000
 dn C#5,1,$000
 dn ___,0,$000
 dn F_5,1,$000
 dn ___,0,$000
 dn G#4,1,$000
 dn ___,0,$000
 dn C#5,1,$000
 dn ___,0,$000
 dn G_4,1,$000
 dn ___,0,$000
 dn ___,0,$000
 dn ___,0,$000
 dn ___,0,$000
 dn ___,0,$000
 dn ___,0,$000
 dn ___,0,$000
 dn ___,0,$000
 dn ___,0,$000
 dn ___,0,$000
 dn ___,0,$000
 dn ___,0,$000
 dn ___,0,$000
 dn ___,0,$000
 dn ___,0,$000
 dn ___,0,$000
 dn ___,0,$000

info_screen_theme_P1:
 dn ___,0,$000
 dn ___,0,$000
 dn ___,0,$000
 dn G#4,2,$000
 dn ___,0,$000
 dn D#5,2,$000
 dn ___,0,$000
 dn C_5,2,$000
 dn ___,0,$000
 dn G_5,2,$000
 dn ___,0,$000
 dn D#5,2,$000
 dn ___,0,$000
 dn A#5,2,$000
 dn ___,0,$000
 dn G_5,2,$000
 dn ___,0,$000
 dn D_6,2,$000
 dn ___,0,$000
 dn A#5,2,$000
 dn ___,0,$000
 dn F_6,2,$000
 dn ___,0,$000
 dn D_6,2,$000
 dn ___,0,$000
 dn A#6,2,$000
 dn ___,0,$000
 dn G#6,2,$000
 dn ___,0,$000
 dn C#6,2,$000
 dn ___,0,$000
 dn F_6,2,$000
 dn ___,0,$000
 dn G#5,2,$000
 dn ___,0,$000
 dn C#6,2,$000
 dn ___,0,$000
 dn F_5,2,$000
 dn ___,0,$000
 dn G#5,2,$000
 dn ___,0,$000
 dn C#5,2,$000
 dn ___,0,$000
 dn F_5,2,$000
 dn ___,0,$000
 dn G#4,2,$000
 dn ___,0,$000
 dn C#5,2,$000
 dn ___,0,$000
 dn G_4,2,$000
 dn ___,0,$000
 dn ___,0,$000
 dn ___,0,$000
 dn ___,0,$000
 dn ___,0,$000
 dn ___,0,$000
 dn ___,0,$000
 dn ___,0,$000
 dn ___,0,$000
 dn ___,0,$000
 dn ___,0,$000
 dn ___,0,$000
 dn ___,0,$000
 dn ___,0,$000

info_screen_theme_P2:
 dn G#4,1,$000
 dn ___,0,$000
 dn ___,0,$000
 dn ___,0,$000
 dn ___,0,$000
 dn ___,0,$000
 dn ___,0,$000
 dn ___,0,$000
 dn ___,0,$000
 dn ___,0,$000
 dn ___,0,$000
 dn ___,0,$000
 dn ___,0,$000
 dn ___,0,$000
 dn ___,0,$000
 dn ___,0,$000
 dn ___,0,$000
 dn ___,0,$000
 dn ___,0,$000
 dn ___,0,$000
 dn ___,0,$000
 dn ___,0,$000
 dn ___,0,$000
 dn ___,0,$000
 dn C#4,1,$000
 dn ___,0,$000
 dn ___,0,$000
 dn ___,0,$000
 dn ___,0,$000
 dn ___,0,$000
 dn ___,0,$000
 dn ___,0,$000
 dn ___,0,$000
 dn ___,0,$000
 dn ___,0,$000
 dn ___,0,$000
 dn C#5,1,$3AA
 dn ___,0,$000
 dn ___,0,$000
 dn ___,0,$000
 dn ___,0,$000
 dn ___,0,$000
 dn G_4,1,$000
 dn ___,0,$000
 dn ___,0,$000
 dn ___,0,$000
 dn ___,0,$000
 dn ___,0,$D01
 dn ___,0,$000
 dn ___,0,$000
 dn ___,0,$000
 dn ___,0,$000
 dn ___,0,$000
 dn ___,0,$000
 dn ___,0,$000
 dn ___,0,$000
 dn ___,0,$000
 dn ___,0,$000
 dn ___,0,$000
 dn ___,0,$000
 dn ___,0,$000
 dn ___,0,$000
 dn ___,0,$000
 dn ___,0,$000

info_screen_theme_P3:
 dn ___,0,$000
 dn ___,0,$000
 dn ___,0,$000
 dn ___,0,$000
 dn ___,0,$000
 dn ___,0,$000
 dn ___,0,$000
 dn ___,0,$000
 dn ___,0,$000
 dn ___,0,$000
 dn ___,0,$000
 dn ___,0,$000
 dn ___,0,$000
 dn ___,0,$000
 dn ___,0,$000
 dn ___,0,$000
 dn ___,0,$000
 dn ___,0,$000
 dn ___,0,$000
 dn ___,0,$000
 dn ___,0,$000
 dn ___,0,$000
 dn ___,0,$000
 dn ___,0,$000
 dn ___,0,$000
 dn ___,0,$000
 dn ___,0,$000
 dn ___,0,$000
 dn ___,0,$000
 dn ___,0,$000
 dn ___,0,$000
 dn ___,0,$000
 dn ___,0,$000
 dn ___,0,$000
 dn ___,0,$000
 dn ___,0,$000
 dn ___,0,$000
 dn ___,0,$000
 dn ___,0,$000
 dn ___,0,$000
 dn ___,0,$000
 dn ___,0,$000
 dn ___,0,$000
 dn ___,0,$000
 dn ___,0,$000
 dn ___,0,$000
 dn ___,0,$000
 dn ___,0,$000
 dn ___,0,$000
 dn ___,0,$000
 dn ___,0,$000
 dn ___,0,$000
 dn ___,0,$000
 dn ___,0,$000
 dn ___,0,$000
 dn ___,0,$000
 dn ___,0,$000
 dn ___,0,$000
 dn ___,0,$000
 dn ___,0,$000
 dn ___,0,$000
 dn ___,0,$000
 dn ___,0,$000
 dn ___,0,$000

info_screen_theme_P6:
 dn G#4,1,$000
 dn ___,0,$000
 dn ___,0,$000
 dn ___,0,$000
 dn ___,0,$000
 dn ___,0,$000
 dn ___,0,$000
 dn ___,0,$000
 dn ___,0,$000
 dn ___,0,$000
 dn ___,0,$000
 dn ___,0,$000
 dn ___,0,$000
 dn ___,0,$000
 dn ___,0,$000
 dn ___,0,$000
 dn ___,0,$000
 dn ___,0,$000
 dn ___,0,$000
 dn ___,0,$000
 dn ___,0,$000
 dn ___,0,$000
 dn ___,0,$000
 dn ___,0,$000
 dn F#4,1,$000
 dn ___,0,$000
 dn ___,0,$000
 dn ___,0,$000
 dn ___,0,$000
 dn ___,0,$000
 dn ___,0,$000
 dn ___,0,$000
 dn ___,0,$000
 dn ___,0,$000
 dn ___,0,$000
 dn ___,0,$000
 dn C#5,1,$3AA
 dn ___,0,$000
 dn ___,0,$000
 dn ___,0,$000
 dn ___,0,$000
 dn ___,0,$000
 dn ___,0,$000
 dn ___,0,$000
 dn ___,0,$000
 dn ___,0,$000
 dn ___,0,$000
 dn ___,0,$D01
 dn ___,0,$000
 dn ___,0,$000
 dn ___,0,$000
 dn ___,0,$000
 dn ___,0,$000
 dn ___,0,$000
 dn ___,0,$000
 dn ___,0,$000
 dn ___,0,$000
 dn ___,0,$000
 dn ___,0,$000
 dn ___,0,$000
 dn ___,0,$000
 dn ___,0,$000
 dn ___,0,$000
 dn ___,0,$000

info_screen_theme_P9:
 dn D_6,3,$103
 dn ___,0,$000
 dn D_6,3,$000
 dn ___,0,$000
 dn A#5,3,$000
 dn ___,0,$000
 dn F_6,3,$000
 dn ___,0,$000
 dn ___,0,$000
 dn ___,0,$463
 dn ___,0,$463
 dn ___,0,$463
 dn ___,0,$463
 dn ___,0,$463
 dn ___,0,$463
 dn ___,0,$463
 dn ___,0,$463
 dn ___,0,$463
 dn ___,0,$463
 dn ___,0,$463
 dn ___,0,$463
 dn ___,0,$463
 dn ___,0,$463
 dn ___,0,$463
 dn F_5,3,$C03
 dn ___,0,$000
 dn F_6,3,$106
 dn ___,0,$000
 dn G_6,3,$C01
 dn ___,0,$000
 dn C_6,3,$000
 dn ___,0,$000
 dn F_5,3,$C01
 dn ___,0,$000
 dn G_6,3,$000
 dn ___,0,$000
 dn F_6,3,$000
 dn ___,0,$000
 dn A#5,3,$C02
 dn ___,0,$000
 dn F_6,3,$C02
 dn ___,0,$000
 dn A#5,3,$C01
 dn ___,0,$000
 dn F_6,3,$C01
 dn ___,0,$000
 dn B_5,4,$C04
 dn C#6,4,$000
 dn ___,0,$000
 dn ___,0,$000
 dn ___,0,$000
 dn ___,0,$000
 dn ___,0,$000
 dn ___,0,$000
 dn ___,0,$000
 dn ___,0,$000
 dn ___,0,$000
 dn ___,0,$000
 dn ___,0,$000
 dn ___,0,$000
 dn ___,0,$000
 dn ___,0,$000
 dn ___,0,$000
 dn ___,0,$000

info_screen_theme_P13:
 dn D_6,3,$103
 dn ___,0,$000
 dn D_6,3,$000
 dn ___,0,$000
 dn A#5,3,$000
 dn ___,0,$000
 dn F_5,3,$000
 dn ___,0,$000
 dn ___,0,$000
 dn ___,0,$463
 dn ___,0,$463
 dn ___,0,$463
 dn ___,0,$463
 dn ___,0,$463
 dn ___,0,$463
 dn ___,0,$463
 dn ___,0,$463
 dn ___,0,$463
 dn ___,0,$463
 dn ___,0,$463
 dn ___,0,$463
 dn ___,0,$463
 dn ___,0,$463
 dn ___,0,$463
 dn F_5,3,$C03
 dn ___,0,$000
 dn D#5,3,$000
 dn ___,0,$000
 dn D#5,3,$C01
 dn ___,0,$000
 dn F_5,3,$000
 dn ___,0,$000
 dn F_5,3,$C01
 dn ___,0,$000
 dn A#5,3,$000
 dn ___,0,$000
 dn C_6,3,$000
 dn ___,0,$000
 dn A#5,3,$C02
 dn ___,0,$000
 dn C_6,3,$C02
 dn ___,0,$000
 dn A#5,3,$C01
 dn ___,0,$000
 dn C_6,3,$C01
 dn ___,0,$000
 dn C_6,3,$C04
 dn D_6,3,$000
 dn ___,0,$000
 dn ___,0,$000
 dn ___,0,$000
 dn ___,0,$000
 dn ___,0,$000
 dn ___,0,$000
 dn ___,0,$000
 dn ___,0,$000
 dn ___,0,$000
 dn ___,0,$000
 dn ___,0,$000
 dn ___,0,$000
 dn ___,0,$000
 dn ___,0,$000
 dn ___,0,$000
 dn ___,0,$000

info_screen_theme_P17:
 dn E_4,1,$000
 dn ___,0,$000
 dn B_4,1,$000
 dn ___,0,$000
 dn G#4,1,$000
 dn ___,0,$000
 dn D#5,1,$000
 dn ___,0,$000
 dn B_4,1,$000
 dn ___,0,$000
 dn F#5,1,$000
 dn ___,0,$000
 dn D#5,1,$000
 dn ___,0,$000
 dn A#5,1,$000
 dn ___,0,$000
 dn F#5,1,$000
 dn ___,0,$000
 dn C#6,1,$000
 dn ___,0,$000
 dn A#5,1,$000
 dn ___,0,$000
 dn F#6,1,$000
 dn ___,0,$000
 dn E_6,1,$000
 dn ___,0,$000
 dn A_5,1,$000
 dn ___,0,$000
 dn C#6,1,$000
 dn ___,0,$000
 dn E_5,1,$000
 dn ___,0,$000
 dn A_5,1,$000
 dn ___,0,$000
 dn C#5,1,$000
 dn ___,0,$000
 dn E_5,1,$000
 dn ___,0,$000
 dn A_4,1,$000
 dn ___,0,$000
 dn C#5,1,$000
 dn ___,0,$000
 dn E_4,1,$000
 dn ___,0,$000
 dn A_4,1,$000
 dn ___,0,$000
 dn D#4,1,$000
 dn ___,0,$000
 dn ___,0,$000
 dn ___,0,$000
 dn ___,0,$000
 dn ___,0,$000
 dn ___,0,$000
 dn ___,0,$000
 dn ___,0,$000
 dn ___,0,$000
 dn ___,0,$000
 dn ___,0,$000
 dn ___,0,$000
 dn ___,0,$000
 dn ___,0,$000
 dn ___,0,$000
 dn ___,0,$000
 dn ___,0,$000

info_screen_theme_P18:
 dn D_6,4,$103
 dn ___,0,$000
 dn C#6,4,$000
 dn ___,0,$000
 dn B_5,4,$000
 dn ___,0,$000
 dn G#6,4,$000
 dn ___,0,$000
 dn ___,0,$000
 dn ___,0,$483
 dn ___,0,$483
 dn ___,0,$483
 dn ___,0,$483
 dn ___,0,$483
 dn ___,0,$483
 dn ___,0,$483
 dn ___,0,$483
 dn ___,0,$483
 dn ___,0,$483
 dn ___,0,$483
 dn ___,0,$483
 dn ___,0,$483
 dn ___,0,$483
 dn ___,0,$483
 dn G#6,4,$C03
 dn ___,0,$000
 dn B_5,4,$107
 dn ___,0,$000
 dn B_5,4,$000
 dn ___,0,$000
 dn A_5,4,$000
 dn ___,0,$000
 dn F#6,4,$000
 dn ___,0,$000
 dn ___,0,$483
 dn ___,0,$483
 dn ___,0,$483
 dn ___,0,$483
 dn ___,0,$483
 dn ___,0,$483
 dn ___,0,$483
 dn ___,0,$483
 dn ___,0,$483
 dn ___,0,$483
 dn ___,0,$483
 dn ___,0,$483
 dn F_6,4,$C01
 dn F#6,4,$C03
 dn ___,0,$000
 dn ___,0,$000
 dn ___,0,$000
 dn ___,0,$000
 dn ___,0,$000
 dn ___,0,$000
 dn ___,0,$000
 dn ___,0,$000
 dn ___,0,$000
 dn ___,0,$000
 dn ___,0,$000
 dn ___,0,$000
 dn ___,0,$000
 dn ___,0,$000
 dn ___,0,$000
 dn ___,0,$000

info_screen_theme_P19:
 dn E_4,1,$000
 dn ___,0,$000
 dn ___,0,$000
 dn ___,0,$000
 dn ___,0,$000
 dn ___,0,$000
 dn ___,0,$000
 dn ___,0,$000
 dn ___,0,$000
 dn ___,0,$000
 dn ___,0,$000
 dn ___,0,$000
 dn ___,0,$000
 dn ___,0,$000
 dn ___,0,$000
 dn ___,0,$000
 dn ___,0,$000
 dn ___,0,$000
 dn ___,0,$000
 dn ___,0,$000
 dn ___,0,$000
 dn ___,0,$000
 dn ___,0,$000
 dn ___,0,$000
 dn D_4,1,$000
 dn ___,0,$000
 dn ___,0,$000
 dn ___,0,$000
 dn ___,0,$000
 dn ___,0,$000
 dn ___,0,$000
 dn ___,0,$000
 dn ___,0,$000
 dn ___,0,$000
 dn ___,0,$000
 dn ___,0,$000
 dn A_4,1,$3AA
 dn ___,0,$000
 dn ___,0,$000
 dn ___,0,$000
 dn ___,0,$000
 dn ___,0,$000
 dn ___,0,$000
 dn ___,0,$000
 dn ___,0,$000
 dn ___,0,$000
 dn ___,0,$000
 dn ___,0,$D01
 dn ___,0,$000
 dn ___,0,$000
 dn ___,0,$000
 dn ___,0,$000
 dn ___,0,$000
 dn ___,0,$000
 dn ___,0,$000
 dn ___,0,$000
 dn ___,0,$000
 dn ___,0,$000
 dn ___,0,$000
 dn ___,0,$000
 dn ___,0,$000
 dn ___,0,$000
 dn ___,0,$000
 dn ___,0,$000

info_screen_theme_P21:
 dn G#4,1,$000
 dn ___,0,$000
 dn D#5,1,$000
 dn ___,0,$000
 dn C_5,1,$000
 dn ___,0,$000
 dn G_5,1,$000
 dn ___,0,$000
 dn D#5,1,$000
 dn ___,0,$000
 dn A#5,1,$000
 dn ___,0,$000
 dn G_5,1,$000
 dn ___,0,$000
 dn D_6,1,$000
 dn ___,0,$000
 dn A#5,1,$000
 dn ___,0,$000
 dn F_6,1,$000
 dn ___,0,$000
 dn D_6,1,$000
 dn ___,0,$000
 dn A#6,1,$000
 dn ___,0,$000
 dn G_4,4,$000
 dn ___,0,$000
 dn ___,0,$000
 dn ___,0,$000
 dn G_4,4,$C05
 dn ___,0,$000
 dn ___,0,$000
 dn ___,0,$000
 dn G_4,4,$C04
 dn ___,0,$000
 dn ___,0,$000
 dn ___,0,$000
 dn G_4,4,$C03
 dn ___,0,$000
 dn ___,0,$000
 dn ___,0,$000
 dn G_4,4,$C02
 dn ___,0,$000
 dn ___,0,$000
 dn ___,0,$000
 dn G_4,4,$C01
 dn ___,0,$000
 dn ___,0,$000
 dn ___,0,$000
 dn ___,0,$000
 dn ___,0,$000
 dn ___,0,$000
 dn ___,0,$000
 dn ___,0,$000
 dn ___,0,$000
 dn ___,0,$000
 dn ___,0,$000
 dn ___,0,$000
 dn ___,0,$000
 dn ___,0,$000
 dn ___,0,$000
 dn ___,0,$000
 dn ___,0,$000
 dn ___,0,$000
 dn ___,0,$000

info_screen_theme_P22:
 dn G_6,4,$000
 dn ___,0,$000
 dn ___,0,$000
 dn ___,0,$000
 dn ___,0,$483
 dn ___,0,$483
 dn ___,0,$483
 dn ___,0,$483
 dn G_6,4,$C03
 dn ___,0,$483
 dn ___,0,$483
 dn ___,0,$483
 dn ___,0,$483
 dn G_6,4,$C02
 dn ___,0,$483
 dn ___,0,$483
 dn ___,0,$483
 dn ___,0,$483
 dn G_6,4,$C01
 dn ___,0,$483
 dn ___,0,$483
 dn ___,0,$483
 dn ___,0,$483
 dn ___,0,$483
 dn ___,0,$000
 dn C_5,4,$000
 dn ___,0,$000
 dn ___,0,$000
 dn ___,0,$000
 dn C_5,4,$C05
 dn ___,0,$000
 dn ___,0,$000
 dn ___,0,$000
 dn C_5,4,$C04
 dn ___,0,$000
 dn ___,0,$000
 dn ___,0,$000
 dn C_5,4,$C03
 dn ___,0,$000
 dn ___,0,$000
 dn ___,0,$000
 dn C_5,4,$C02
 dn ___,0,$000
 dn ___,0,$000
 dn ___,0,$000
 dn C_5,4,$C01
 dn ___,0,$000
 dn ___,0,$D01
 dn ___,0,$000
 dn ___,0,$000
 dn ___,0,$000
 dn ___,0,$000
 dn ___,0,$000
 dn ___,0,$000
 dn ___,0,$000
 dn ___,0,$000
 dn ___,0,$000
 dn ___,0,$000
 dn ___,0,$000
 dn ___,0,$000
 dn ___,0,$000
 dn ___,0,$000
 dn ___,0,$000
 dn ___,0,$000

info_screen_theme_P23:
 dn G#4,1,$000
 dn ___,0,$000
 dn ___,0,$000
 dn ___,0,$000
 dn ___,0,$000
 dn ___,0,$000
 dn ___,0,$000
 dn ___,0,$000
 dn ___,0,$000
 dn ___,0,$000
 dn ___,0,$000
 dn ___,0,$000
 dn ___,0,$000
 dn ___,0,$000
 dn ___,0,$000
 dn ___,0,$000
 dn ___,0,$000
 dn ___,0,$000
 dn ___,0,$000
 dn ___,0,$000
 dn G#3,1,$320
 dn ___,0,$320
 dn ___,0,$320
 dn ___,0,$320
 dn G#3,1,$000
 dn ___,0,$000
 dn ___,0,$000
 dn ___,0,$000
 dn ___,0,$000
 dn ___,0,$000
 dn ___,0,$000
 dn ___,0,$000
 dn ___,0,$000
 dn ___,0,$000
 dn ___,0,$000
 dn ___,0,$000
 dn ___,0,$000
 dn ___,0,$000
 dn ___,0,$000
 dn ___,0,$000
 dn ___,0,$000
 dn ___,0,$000
 dn ___,0,$000
 dn ___,0,$000
 dn ___,0,$000
 dn ___,0,$000
 dn ___,0,$000
 dn ___,0,$000
 dn ___,0,$000
 dn ___,0,$000
 dn ___,0,$000
 dn ___,0,$000
 dn ___,0,$000
 dn ___,0,$000
 dn ___,0,$000
 dn ___,0,$000
 dn ___,0,$000
 dn ___,0,$000
 dn ___,0,$000
 dn ___,0,$000
 dn ___,0,$000
 dn ___,0,$000
 dn ___,0,$000
 dn ___,0,$000

info_screen_theme_P25:
 dn ___,0,$000
 dn ___,0,$000
 dn ___,0,$000
 dn C_5,6,$000
 dn ___,0,$000
 dn G_5,6,$000
 dn ___,0,$000
 dn B_5,6,$000
 dn ___,0,$000
 dn E_6,6,$000
 dn ___,0,$000
 dn G_6,6,$000
 dn ___,0,$000
 dn B_6,6,$000
 dn ___,0,$000
 dn A#4,6,$000
 dn ___,0,$000
 dn F_5,6,$000
 dn ___,0,$000
 dn A_5,6,$000
 dn ___,0,$000
 dn D_6,6,$000
 dn ___,0,$000
 dn F_6,6,$000
 dn ___,0,$000
 dn A_6,6,$000
 dn ___,0,$000
 dn C_5,6,$000
 dn ___,0,$000
 dn G_5,6,$000
 dn ___,0,$000
 dn B_5,6,$000
 dn ___,0,$000
 dn E_6,6,$000
 dn ___,0,$000
 dn G_6,6,$000
 dn ___,0,$000
 dn B_6,6,$000
 dn ___,0,$000
 dn A#4,6,$000
 dn ___,0,$000
 dn F_5,6,$000
 dn ___,0,$000
 dn A_5,6,$000
 dn ___,0,$000
 dn D_6,6,$000
 dn ___,0,$000
 dn F_6,6,$000
 dn ___,0,$000
 dn ___,0,$000
 dn ___,0,$000
 dn ___,0,$000
 dn ___,0,$000
 dn ___,0,$000
 dn ___,0,$000
 dn ___,0,$000
 dn ___,0,$000
 dn ___,0,$000
 dn ___,0,$000
 dn ___,0,$000
 dn ___,0,$000
 dn ___,0,$000
 dn ___,0,$000
 dn ___,0,$000

info_screen_theme_P26:
 dn C_5,5,$000
 dn ___,0,$000
 dn G_5,5,$000
 dn ___,0,$000
 dn B_5,5,$000
 dn ___,0,$000
 dn E_6,5,$000
 dn ___,0,$000
 dn G_6,5,$000
 dn ___,0,$000
 dn B_6,5,$000
 dn ___,0,$000
 dn A#4,5,$000
 dn ___,0,$000
 dn F_5,5,$000
 dn ___,0,$000
 dn A_5,5,$000
 dn ___,0,$000
 dn D_6,5,$000
 dn ___,0,$000
 dn F_6,5,$000
 dn ___,0,$000
 dn A_6,5,$000
 dn ___,0,$000
 dn C_5,5,$000
 dn ___,0,$000
 dn G_5,5,$000
 dn ___,0,$000
 dn B_5,5,$000
 dn ___,0,$000
 dn E_6,5,$000
 dn ___,0,$000
 dn G_6,5,$000
 dn ___,0,$000
 dn B_6,5,$000
 dn ___,0,$000
 dn A#4,5,$000
 dn ___,0,$000
 dn F_5,5,$000
 dn ___,0,$000
 dn A_5,5,$000
 dn ___,0,$000
 dn D_6,5,$000
 dn ___,0,$000
 dn F_6,5,$000
 dn ___,0,$000
 dn A_6,5,$000
 dn ___,0,$000
 dn ___,0,$000
 dn ___,0,$000
 dn ___,0,$000
 dn ___,0,$000
 dn ___,0,$000
 dn ___,0,$000
 dn ___,0,$000
 dn ___,0,$000
 dn ___,0,$000
 dn ___,0,$000
 dn ___,0,$000
 dn ___,0,$000
 dn ___,0,$000
 dn ___,0,$000
 dn ___,0,$000
 dn ___,0,$000

info_screen_theme_P27:
 dn C_5,2,$000
 dn C_5,2,$C00
 dn ___,0,$000
 dn ___,0,$000
 dn G_6,2,$C02
 dn ___,0,$000
 dn ___,0,$000
 dn ___,0,$000
 dn C_7,2,$C02
 dn ___,0,$000
 dn ___,0,$000
 dn ___,0,$000
 dn A#4,2,$000
 dn A#4,2,$C00
 dn ___,0,$000
 dn ___,0,$000
 dn F_6,2,$C02
 dn ___,0,$000
 dn ___,0,$000
 dn ___,0,$000
 dn A#6,2,$C02
 dn ___,0,$000
 dn ___,0,$000
 dn ___,0,$000
 dn C_5,2,$000
 dn C_5,2,$C00
 dn ___,0,$000
 dn ___,0,$000
 dn G_6,2,$C02
 dn ___,0,$000
 dn ___,0,$000
 dn ___,0,$000
 dn C_7,2,$C02
 dn ___,0,$000
 dn ___,0,$000
 dn ___,0,$000
 dn A#4,2,$000
 dn A#4,2,$C00
 dn ___,0,$000
 dn ___,0,$000
 dn F_6,2,$C02
 dn ___,0,$000
 dn ___,0,$000
 dn ___,0,$000
 dn A#6,2,$C02
 dn ___,0,$000
 dn ___,0,$000
 dn ___,0,$D01
 dn ___,0,$000
 dn ___,0,$000
 dn ___,0,$000
 dn ___,0,$000
 dn ___,0,$000
 dn ___,0,$000
 dn ___,0,$000
 dn ___,0,$000
 dn ___,0,$000
 dn ___,0,$000
 dn ___,0,$000
 dn ___,0,$000
 dn ___,0,$000
 dn ___,0,$000
 dn ___,0,$000
 dn ___,0,$000

info_screen_theme_P29:
 dn C_5,4,$000
 dn ___,0,$000
 dn ___,0,$000
 dn ___,0,$000
 dn ___,0,$000
 dn ___,0,$000
 dn ___,0,$000
 dn ___,0,$000
 dn ___,0,$000
 dn ___,0,$000
 dn ___,0,$000
 dn ___,0,$000
 dn ___,0,$000
 dn ___,0,$000
 dn ___,0,$000
 dn ___,0,$000
 dn ___,0,$000
 dn ___,0,$000
 dn ___,0,$000
 dn ___,0,$000
 dn C_5,4,$C02
 dn ___,0,$000
 dn ___,0,$000
 dn ___,0,$000
 dn A#4,4,$000
 dn ___,0,$000
 dn ___,0,$000
 dn ___,0,$000
 dn ___,0,$000
 dn ___,0,$000
 dn ___,0,$000
 dn ___,0,$000
 dn ___,0,$000
 dn ___,0,$000
 dn ___,0,$000
 dn ___,0,$000
 dn ___,0,$000
 dn ___,0,$000
 dn ___,0,$000
 dn ___,0,$000
 dn ___,0,$000
 dn ___,0,$000
 dn ___,0,$000
 dn ___,0,$000
 dn A#4,4,$C02
 dn ___,0,$000
 dn ___,0,$000
 dn ___,0,$000
 dn ___,0,$000
 dn ___,0,$000
 dn ___,0,$000
 dn ___,0,$000
 dn ___,0,$000
 dn ___,0,$000
 dn ___,0,$000
 dn ___,0,$000
 dn ___,0,$000
 dn ___,0,$000
 dn ___,0,$000
 dn ___,0,$000
 dn ___,0,$000
 dn ___,0,$000
 dn ___,0,$000
 dn ___,0,$000

info_screen_theme_P30:
 dn G#7,5,$000
 dn G_7,5,$000
 dn D#7,5,$000
 dn C_7,5,$000
 dn D#7,5,$000
 dn C_7,5,$000
 dn G#6,5,$000
 dn G_6,5,$000
 dn G#6,5,$000
 dn G_6,5,$000
 dn D#6,5,$000
 dn C_6,5,$000
 dn D#6,5,$000
 dn C_6,5,$000
 dn G#5,5,$000
 dn G_5,5,$000
 dn G#5,5,$000
 dn G_5,5,$000
 dn D#5,5,$000
 dn C_5,5,$000
 dn D#5,5,$000
 dn C_5,5,$000
 dn G#4,5,$000
 dn G_4,5,$000
 dn F#7,5,$000
 dn F_7,5,$000
 dn C#7,5,$000
 dn A#6,5,$000
 dn C#7,5,$000
 dn A#6,5,$000
 dn F#6,5,$000
 dn F_6,5,$000
 dn F#6,5,$000
 dn F_6,5,$000
 dn C#6,5,$000
 dn A#5,5,$000
 dn C#6,5,$000
 dn A#5,5,$000
 dn F#5,5,$000
 dn F_5,5,$000
 dn F#5,5,$000
 dn F_5,5,$000
 dn C#5,5,$000
 dn A#4,5,$000
 dn C#5,5,$000
 dn A#4,5,$000
 dn F#4,5,$000
 dn F_4,5,$000
 dn ___,0,$000
 dn ___,0,$000
 dn ___,0,$000
 dn ___,0,$000
 dn ___,0,$000
 dn ___,0,$000
 dn ___,0,$000
 dn ___,0,$000
 dn ___,0,$000
 dn ___,0,$000
 dn ___,0,$000
 dn ___,0,$000
 dn ___,0,$000
 dn ___,0,$000
 dn ___,0,$000
 dn ___,0,$000

info_screen_theme_P31:
 dn G#4,2,$000
 dn ___,0,$000
 dn ___,0,$000
 dn ___,0,$000
 dn ___,0,$000
 dn ___,0,$000
 dn ___,0,$000
 dn ___,0,$000
 dn ___,0,$000
 dn ___,0,$000
 dn ___,0,$000
 dn ___,0,$000
 dn ___,0,$000
 dn ___,0,$000
 dn ___,0,$000
 dn ___,0,$000
 dn ___,0,$000
 dn ___,0,$000
 dn ___,0,$000
 dn ___,0,$000
 dn G#4,2,$C02
 dn ___,0,$000
 dn ___,0,$000
 dn ___,0,$000
 dn F#4,2,$000
 dn ___,0,$000
 dn ___,0,$000
 dn ___,0,$000
 dn ___,0,$000
 dn ___,0,$000
 dn ___,0,$000
 dn ___,0,$000
 dn ___,0,$000
 dn ___,0,$000
 dn ___,0,$000
 dn ___,0,$000
 dn ___,0,$000
 dn ___,0,$000
 dn ___,0,$000
 dn ___,0,$000
 dn ___,0,$000
 dn ___,0,$000
 dn ___,0,$000
 dn ___,0,$000
 dn F#4,2,$C02
 dn ___,0,$000
 dn ___,0,$000
 dn ___,0,$D01
 dn ___,0,$000
 dn ___,0,$000
 dn ___,0,$000
 dn ___,0,$000
 dn ___,0,$000
 dn ___,0,$000
 dn ___,0,$000
 dn ___,0,$000
 dn ___,0,$000
 dn ___,0,$000
 dn ___,0,$000
 dn ___,0,$000
 dn ___,0,$000
 dn ___,0,$000
 dn ___,0,$000
 dn ___,0,$000

info_screen_theme_P33:
 dn C_5,4,$C01
 dn ___,0,$000
 dn ___,0,$000
 dn ___,0,$000
 dn C_5,4,$C02
 dn ___,0,$000
 dn ___,0,$000
 dn ___,0,$000
 dn C_5,4,$C03
 dn ___,0,$000
 dn ___,0,$000
 dn ___,0,$000
 dn C_5,4,$C04
 dn ___,0,$000
 dn ___,0,$000
 dn ___,0,$000
 dn C_5,4,$C05
 dn ___,0,$000
 dn ___,0,$000
 dn ___,0,$000
 dn C_5,4,$C06
 dn ___,0,$000
 dn ___,0,$000
 dn ___,0,$000
 dn C_5,4,$C08
 dn ___,0,$A03
 dn ___,0,$A03
 dn ___,0,$A03
 dn ___,0,$A03
 dn ___,0,$000
 dn ___,0,$000
 dn ___,0,$000
 dn ___,0,$000
 dn ___,0,$000
 dn ___,0,$000
 dn ___,0,$000
 dn ___,0,$000
 dn ___,0,$000
 dn ___,0,$000
 dn ___,0,$000
 dn ___,0,$000
 dn ___,0,$000
 dn ___,0,$000
 dn ___,0,$000
 dn ___,0,$000
 dn ___,0,$000
 dn ___,0,$000
 dn ___,0,$000
 dn ___,0,$000
 dn ___,0,$000
 dn ___,0,$000
 dn ___,0,$000
 dn ___,0,$000
 dn ___,0,$000
 dn ___,0,$000
 dn ___,0,$000
 dn ___,0,$000
 dn ___,0,$000
 dn ___,0,$000
 dn ___,0,$000
 dn ___,0,$000
 dn ___,0,$000
 dn ___,0,$000
 dn ___,0,$000

info_screen_theme_P34:
 dn G_4,4,$C01
 dn ___,0,$000
 dn ___,0,$000
 dn ___,0,$000
 dn G_4,4,$C02
 dn ___,0,$000
 dn ___,0,$000
 dn ___,0,$000
 dn G_4,4,$C03
 dn ___,0,$000
 dn ___,0,$000
 dn ___,0,$000
 dn G_4,4,$C04
 dn ___,0,$000
 dn ___,0,$000
 dn ___,0,$000
 dn G_4,4,$C05
 dn ___,0,$000
 dn ___,0,$000
 dn ___,0,$000
 dn G_4,4,$C06
 dn ___,0,$000
 dn ___,0,$000
 dn ___,0,$000
 dn G_4,4,$C08
 dn ___,0,$A03
 dn ___,0,$A03
 dn ___,0,$A03
 dn ___,0,$A03
 dn ___,0,$000
 dn ___,0,$000
 dn ___,0,$000
 dn ___,0,$000
 dn ___,0,$000
 dn ___,0,$000
 dn ___,0,$000
 dn ___,0,$000
 dn ___,0,$000
 dn ___,0,$000
 dn ___,0,$000
 dn ___,0,$000
 dn ___,0,$000
 dn ___,0,$000
 dn ___,0,$000
 dn ___,0,$000
 dn ___,0,$000
 dn ___,0,$000
 dn ___,0,$000
 dn ___,0,$000
 dn ___,0,$000
 dn ___,0,$000
 dn ___,0,$000
 dn ___,0,$000
 dn ___,0,$000
 dn ___,0,$000
 dn ___,0,$000
 dn ___,0,$000
 dn ___,0,$000
 dn ___,0,$000
 dn ___,0,$000
 dn ___,0,$000
 dn ___,0,$000
 dn ___,0,$000
 dn ___,0,$000

info_screen_theme_P35:
 dn G#4,2,$000
 dn ___,0,$000
 dn ___,0,$000
 dn ___,0,$000
 dn ___,0,$000
 dn ___,0,$000
 dn ___,0,$000
 dn ___,0,$000
 dn ___,0,$000
 dn ___,0,$000
 dn ___,0,$000
 dn ___,0,$000
 dn ___,0,$000
 dn ___,0,$000
 dn ___,0,$000
 dn ___,0,$000
 dn ___,0,$000
 dn ___,0,$000
 dn ___,0,$000
 dn ___,0,$000
 dn ___,0,$000
 dn ___,0,$000
 dn ___,0,$000
 dn ___,0,$000
 dn G#4,2,$000
 dn ___,0,$000
 dn C_5,2,$C02
 dn ___,0,$000
 dn D#5,2,$C02
 dn ___,0,$000
 dn G#5,2,$C02
 dn ___,0,$000
 dn A#5,2,$C02
 dn ___,0,$000
 dn G#5,2,$C02
 dn ___,0,$000
 dn G_7,2,$C02
 dn ___,0,$000
 dn F_7,2,$C02
 dn D#7,2,$C02
 dn D_7,2,$C02
 dn ___,0,$000
 dn D#7,2,$C02
 dn ___,0,$000
 dn D_7,2,$C02
 dn ___,0,$000
 dn A#6,2,$C02
 dn ___,0,$D01
 dn ___,0,$000
 dn ___,0,$000
 dn ___,0,$000
 dn ___,0,$000
 dn ___,0,$000
 dn ___,0,$000
 dn ___,0,$000
 dn ___,0,$000
 dn ___,0,$000
 dn ___,0,$000
 dn ___,0,$000
 dn ___,0,$000
 dn ___,0,$000
 dn ___,0,$000
 dn ___,0,$000
 dn ___,0,$000

info_screen_theme_duty_instruments:
info_screen_theme_itSquareinst1:
db 8
db 0
db 113
dw 0
db 128

info_screen_theme_itSquareinst2:
db 8
db 0
db 37
dw 0
db 128

info_screen_theme_itSquareinst3:
db 8
db 128
db 96
dw 0
db 128

info_screen_theme_itSquareinst4:
db 8
db 192
db 96
dw 0
db 128

info_screen_theme_itSquareinst5:
db 8
db 128
db 145
dw 0
db 128

info_screen_theme_itSquareinst6:
db 8
db 128
db 23
dw 0
db 128



info_screen_theme_wave_instruments:
info_screen_theme_itWaveinst1:
db 0
db 32
db 0
dw 0
db 128

info_screen_theme_itWaveinst2:
db 0
db 32
db 1
dw 0
db 128



info_screen_theme_noise_instruments:


info_screen_theme_routines:
info_screen_theme__hUGE_Routine_0:

info_screen_theme__end_hUGE_Routine_0:
ret

info_screen_theme__hUGE_Routine_1:

info_screen_theme__end_hUGE_Routine_1:
ret

info_screen_theme__hUGE_Routine_2:

info_screen_theme__end_hUGE_Routine_2:
ret

info_screen_theme__hUGE_Routine_3:

info_screen_theme__end_hUGE_Routine_3:
ret

info_screen_theme__hUGE_Routine_4:

info_screen_theme__end_hUGE_Routine_4:
ret

info_screen_theme__hUGE_Routine_5:

info_screen_theme__end_hUGE_Routine_5:
ret

info_screen_theme__hUGE_Routine_6:

info_screen_theme__end_hUGE_Routine_6:
ret

info_screen_theme__hUGE_Routine_7:

info_screen_theme__end_hUGE_Routine_7:
ret

info_screen_theme__hUGE_Routine_8:

info_screen_theme__end_hUGE_Routine_8:
ret

info_screen_theme__hUGE_Routine_9:

info_screen_theme__end_hUGE_Routine_9:
ret

info_screen_theme__hUGE_Routine_10:

info_screen_theme__end_hUGE_Routine_10:
ret

info_screen_theme__hUGE_Routine_11:

info_screen_theme__end_hUGE_Routine_11:
ret

info_screen_theme__hUGE_Routine_12:

info_screen_theme__end_hUGE_Routine_12:
ret

info_screen_theme__hUGE_Routine_13:

info_screen_theme__end_hUGE_Routine_13:
ret

info_screen_theme__hUGE_Routine_14:

info_screen_theme__end_hUGE_Routine_14:
ret

info_screen_theme__hUGE_Routine_15:

info_screen_theme__end_hUGE_Routine_15:
ret

info_screen_theme_waves:
info_screen_theme_wave0: db 102,102,50,16,18,70,138,205,238,237,203,169,135,101,85,85
info_screen_theme_wave1: db 138,189,239,255,255,254,219,168,117,66,16,0,0,1,36,87

