include "huge_driver/include/hUGE.inc"

SECTION "menu_theme Song Data", ROMX

menu_theme::
db 4
dw order_cnt
dw order1, order2, order3, order4
dw duty_instruments, wave_instruments, noise_instruments
dw routines
dw waves

order_cnt: db 32
order1: dw P0,P0,P4,P0,P0,P0,P4,P0,P6,P8,P10,P12,P6,P8,P10,P12
order2: dw P1,P1,P5,P1,P1,P1,P5,P1,P7,P9,P11,P13,P7,P9,P11,P13
order3: dw P2,P2,P2,P2,P2,P2,P2,P2,P2,P2,P2,P2,P2,P2,P2,P2
order4: dw P3,P3,P3,P3,P3,P3,P3,P3,P3,P3,P3,P3,P3,P3,P3,P3

P0:
 dn A_4,1,$000
 dn ___,0,$000
 dn ___,0,$000
 dn ___,0,$000
 dn ___,0,$000
 dn ___,0,$000
 dn ___,0,$000
 dn ___,0,$000
 dn A#4,1,$000
 dn ___,0,$000
 dn ___,0,$000
 dn ___,0,$000
 dn ___,0,$000
 dn ___,0,$000
 dn ___,0,$000
 dn ___,0,$000
 dn D_5,1,$000
 dn ___,0,$000
 dn ___,0,$000
 dn ___,0,$000
 dn ___,0,$000
 dn ___,0,$000
 dn ___,0,$000
 dn ___,0,$000
 dn ___,0,$000
 dn ___,0,$000
 dn ___,0,$000
 dn ___,0,$000
 dn ___,0,$000
 dn ___,0,$000
 dn ___,0,$000
 dn ___,0,$000
 dn A_4,1,$000
 dn ___,0,$000
 dn ___,0,$000
 dn ___,0,$000
 dn ___,0,$000
 dn ___,0,$000
 dn ___,0,$000
 dn ___,0,$000
 dn A#4,1,$000
 dn ___,0,$000
 dn ___,0,$000
 dn ___,0,$000
 dn D_5,1,$000
 dn ___,0,$000
 dn ___,0,$000
 dn ___,0,$000
 dn ___,0,$000
 dn ___,0,$000
 dn ___,0,$000
 dn ___,0,$000
 dn A#4,1,$000
 dn ___,0,$000
 dn ___,0,$000
 dn ___,0,$000
 dn ___,0,$000
 dn ___,0,$000
 dn ___,0,$000
 dn ___,0,$000
 dn ___,0,$000
 dn ___,0,$000
 dn ___,0,$000
 dn ___,0,$000

P1:
 dn ___,0,$8FF
 dn ___,0,$000
 dn ___,0,$8DF
 dn ___,0,$000
 dn A_4,2,$201
 dn ___,0,$000
 dn ___,0,$8FD
 dn ___,0,$000
 dn ___,0,$8FF
 dn ___,0,$000
 dn ___,0,$8DF
 dn ___,0,$000
 dn A#4,2,$201
 dn ___,0,$000
 dn ___,0,$8FD
 dn ___,0,$000
 dn ___,0,$8FF
 dn ___,0,$000
 dn ___,0,$8DF
 dn ___,0,$000
 dn D_5,2,$201
 dn ___,0,$000
 dn ___,0,$8FD
 dn ___,0,$000
 dn ___,0,$8FF
 dn ___,0,$000
 dn ___,0,$8DF
 dn ___,0,$000
 dn ___,0,$8FF
 dn ___,0,$000
 dn ___,0,$8FD
 dn ___,0,$000
 dn ___,0,$8FF
 dn ___,0,$000
 dn ___,0,$8DF
 dn ___,0,$000
 dn A_4,2,$201
 dn ___,0,$000
 dn ___,0,$8FD
 dn ___,0,$000
 dn ___,0,$8FF
 dn ___,0,$000
 dn ___,0,$8DF
 dn ___,0,$000
 dn A#4,2,$201
 dn ___,0,$000
 dn ___,0,$8FD
 dn ___,0,$000
 dn D_5,2,$201
 dn ___,0,$000
 dn ___,0,$8DF
 dn ___,0,$000
 dn ___,0,$8FF
 dn ___,0,$000
 dn ___,0,$8FD
 dn ___,0,$000
 dn A#4,2,$201
 dn ___,0,$000
 dn ___,0,$8DF
 dn ___,0,$000
 dn ___,0,$8FF
 dn ___,0,$000
 dn ___,0,$8FD
 dn ___,0,$000

P2:
 dn A#3,1,$8FF
 dn ___,0,$000
 dn ___,0,$C08
 dn ___,0,$000
 dn ___,0,$8FF
 dn ___,0,$000
 dn ___,0,$C04
 dn ___,0,$000
 dn ___,0,$8FF
 dn ___,0,$000
 dn ___,0,$000
 dn ___,0,$000
 dn A#3,1,$8FF
 dn ___,0,$000
 dn ___,0,$C08
 dn ___,0,$000
 dn A#3,1,$000
 dn ___,0,$000
 dn ___,0,$C08
 dn ___,0,$000
 dn ___,0,$8FF
 dn ___,0,$000
 dn ___,0,$C04
 dn ___,0,$000
 dn ___,0,$8FF
 dn ___,0,$000
 dn ___,0,$000
 dn ___,0,$000
 dn A#3,1,$8FF
 dn ___,0,$000
 dn ___,0,$C08
 dn ___,0,$000
 dn A#3,1,$8FF
 dn ___,0,$000
 dn ___,0,$C08
 dn ___,0,$000
 dn ___,0,$8FF
 dn ___,0,$000
 dn ___,0,$C04
 dn ___,0,$000
 dn ___,0,$8FF
 dn ___,0,$000
 dn ___,0,$000
 dn ___,0,$000
 dn A#3,1,$8FF
 dn ___,0,$000
 dn ___,0,$C08
 dn ___,0,$000
 dn A#3,1,$8FF
 dn ___,0,$000
 dn ___,0,$C08
 dn ___,0,$000
 dn F_3,1,$8FF
 dn ___,0,$000
 dn ___,0,$C08
 dn ___,0,$000
 dn G_3,1,$8FF
 dn ___,0,$000
 dn ___,0,$C08
 dn ___,0,$000
 dn A_3,1,$8FF
 dn ___,0,$000
 dn ___,0,$C08
 dn ___,0,$000

P3:
 dn ___,0,$F04
 dn ___,0,$F03
 dn ___,0,$F04
 dn ___,0,$F03
 dn ___,0,$F04
 dn ___,0,$F03
 dn ___,0,$F04
 dn ___,0,$F03
 dn ___,0,$F04
 dn ___,0,$F03
 dn ___,0,$F04
 dn ___,0,$F03
 dn ___,0,$F04
 dn ___,0,$F03
 dn ___,0,$F04
 dn ___,0,$F03
 dn ___,0,$F04
 dn ___,0,$F03
 dn ___,0,$F04
 dn ___,0,$F03
 dn ___,0,$F04
 dn ___,0,$F03
 dn ___,0,$F04
 dn ___,0,$F03
 dn ___,0,$F04
 dn ___,0,$F03
 dn ___,0,$F04
 dn ___,0,$F03
 dn ___,0,$F04
 dn ___,0,$F03
 dn ___,0,$F04
 dn ___,0,$F03
 dn ___,0,$F04
 dn ___,0,$F03
 dn ___,0,$F04
 dn ___,0,$F03
 dn ___,0,$F04
 dn ___,0,$F03
 dn ___,0,$F04
 dn ___,0,$F03
 dn ___,0,$F04
 dn ___,0,$F03
 dn ___,0,$F04
 dn ___,0,$F03
 dn ___,0,$F04
 dn ___,0,$F03
 dn ___,0,$F04
 dn ___,0,$F03
 dn ___,0,$F04
 dn ___,0,$F03
 dn ___,0,$F04
 dn ___,0,$F03
 dn ___,0,$F04
 dn ___,0,$F03
 dn ___,0,$F04
 dn ___,0,$F03
 dn ___,0,$F04
 dn ___,0,$F03
 dn ___,0,$F04
 dn ___,0,$F03
 dn ___,0,$F04
 dn ___,0,$F03
 dn ___,0,$F04
 dn ___,0,$F03

P4:
 dn A_4,1,$000
 dn ___,0,$000
 dn ___,0,$000
 dn ___,0,$000
 dn ___,0,$000
 dn ___,0,$000
 dn ___,0,$000
 dn ___,0,$000
 dn A#4,1,$000
 dn ___,0,$000
 dn ___,0,$000
 dn ___,0,$000
 dn ___,0,$000
 dn ___,0,$000
 dn ___,0,$000
 dn ___,0,$000
 dn D#5,1,$000
 dn ___,0,$000
 dn ___,0,$000
 dn ___,0,$000
 dn ___,0,$000
 dn ___,0,$000
 dn ___,0,$000
 dn ___,0,$000
 dn ___,0,$000
 dn ___,0,$000
 dn ___,0,$000
 dn ___,0,$000
 dn ___,0,$000
 dn ___,0,$000
 dn ___,0,$000
 dn ___,0,$000
 dn A_4,1,$000
 dn ___,0,$000
 dn ___,0,$000
 dn ___,0,$000
 dn ___,0,$000
 dn ___,0,$000
 dn ___,0,$000
 dn ___,0,$000
 dn A#4,1,$000
 dn ___,0,$000
 dn ___,0,$000
 dn ___,0,$000
 dn D#5,1,$000
 dn ___,0,$000
 dn ___,0,$000
 dn ___,0,$000
 dn ___,0,$000
 dn ___,0,$000
 dn ___,0,$000
 dn ___,0,$000
 dn A#4,1,$000
 dn ___,0,$000
 dn ___,0,$000
 dn ___,0,$000
 dn ___,0,$000
 dn ___,0,$000
 dn ___,0,$000
 dn ___,0,$000
 dn ___,0,$000
 dn ___,0,$000
 dn ___,0,$000
 dn ___,0,$000

P5:
 dn ___,0,$8FF
 dn ___,0,$000
 dn ___,0,$8DF
 dn ___,0,$000
 dn A_4,2,$201
 dn ___,0,$000
 dn ___,0,$8FD
 dn ___,0,$000
 dn ___,0,$8FF
 dn ___,0,$000
 dn ___,0,$8DF
 dn ___,0,$000
 dn A#4,2,$201
 dn ___,0,$000
 dn ___,0,$8FD
 dn ___,0,$000
 dn ___,0,$8FF
 dn ___,0,$000
 dn ___,0,$8DF
 dn ___,0,$000
 dn D#5,2,$201
 dn ___,0,$000
 dn ___,0,$8FD
 dn ___,0,$000
 dn ___,0,$8FF
 dn ___,0,$000
 dn ___,0,$8DF
 dn ___,0,$000
 dn ___,0,$8FF
 dn ___,0,$000
 dn ___,0,$8FD
 dn ___,0,$000
 dn ___,0,$8FF
 dn ___,0,$000
 dn ___,0,$8DF
 dn ___,0,$000
 dn A_4,2,$201
 dn ___,0,$000
 dn ___,0,$8FD
 dn ___,0,$000
 dn ___,0,$8FF
 dn ___,0,$000
 dn ___,0,$8DF
 dn ___,0,$000
 dn A#4,2,$201
 dn ___,0,$000
 dn ___,0,$8FD
 dn ___,0,$000
 dn D#5,2,$201
 dn ___,0,$000
 dn ___,0,$8DF
 dn ___,0,$000
 dn ___,0,$8FF
 dn ___,0,$000
 dn ___,0,$8FD
 dn ___,0,$000
 dn A#4,2,$201
 dn ___,0,$000
 dn ___,0,$8DF
 dn ___,0,$000
 dn ___,0,$8FF
 dn ___,0,$000
 dn ___,0,$8FD
 dn ___,0,$000

P6:
 dn F_5,1,$000
 dn ___,0,$000
 dn ___,0,$000
 dn ___,0,$000
 dn ___,0,$000
 dn ___,0,$000
 dn ___,0,$000
 dn ___,0,$000
 dn ___,0,$000
 dn ___,0,$000
 dn ___,0,$000
 dn ___,0,$000
 dn ___,0,$000
 dn ___,0,$000
 dn ___,0,$000
 dn ___,0,$000
 dn ___,0,$000
 dn ___,0,$000
 dn ___,0,$000
 dn ___,0,$000
 dn ___,0,$000
 dn ___,0,$000
 dn ___,0,$000
 dn ___,0,$000
 dn G_5,1,$000
 dn ___,0,$000
 dn ___,0,$000
 dn ___,0,$000
 dn F_5,1,$000
 dn ___,0,$000
 dn ___,0,$000
 dn ___,0,$000
 dn ___,0,$000
 dn ___,0,$000
 dn ___,0,$000
 dn ___,0,$000
 dn ___,0,$000
 dn ___,0,$000
 dn ___,0,$000
 dn ___,0,$000
 dn ___,0,$000
 dn ___,0,$000
 dn ___,0,$000
 dn ___,0,$000
 dn ___,0,$000
 dn ___,0,$000
 dn ___,0,$000
 dn ___,0,$000
 dn ___,0,$000
 dn ___,0,$000
 dn ___,0,$000
 dn ___,0,$000
 dn C_5,1,$000
 dn ___,0,$000
 dn ___,0,$000
 dn ___,0,$000
 dn D_5,1,$000
 dn ___,0,$000
 dn ___,0,$000
 dn ___,0,$000
 dn D#5,1,$000
 dn ___,0,$000
 dn ___,0,$000
 dn ___,0,$000

P7:
 dn ___,0,$8FF
 dn ___,0,$000
 dn ___,0,$8DF
 dn ___,0,$000
 dn F_5,2,$201
 dn ___,0,$000
 dn ___,0,$8FD
 dn ___,0,$000
 dn ___,0,$8FF
 dn ___,0,$000
 dn ___,0,$8DF
 dn ___,0,$000
 dn ___,0,$8FF
 dn ___,0,$000
 dn ___,0,$8FD
 dn ___,0,$000
 dn ___,0,$8FF
 dn ___,0,$000
 dn ___,0,$8DF
 dn ___,0,$000
 dn ___,0,$8FF
 dn ___,0,$000
 dn ___,0,$8FD
 dn ___,0,$000
 dn ___,0,$8FF
 dn ___,0,$000
 dn ___,0,$8DF
 dn ___,0,$000
 dn G_5,2,$201
 dn ___,0,$000
 dn ___,0,$8FD
 dn ___,0,$000
 dn F_5,2,$201
 dn ___,0,$000
 dn ___,0,$8DF
 dn ___,0,$000
 dn ___,0,$8FF
 dn ___,0,$000
 dn ___,0,$8FD
 dn ___,0,$000
 dn ___,0,$8FF
 dn ___,0,$000
 dn ___,0,$8DF
 dn ___,0,$000
 dn ___,0,$8FF
 dn ___,0,$000
 dn ___,0,$8FD
 dn ___,0,$000
 dn ___,0,$8FF
 dn ___,0,$000
 dn ___,0,$8DF
 dn ___,0,$000
 dn ___,0,$8FF
 dn ___,0,$000
 dn ___,0,$8FD
 dn ___,0,$000
 dn C_5,2,$201
 dn ___,0,$000
 dn ___,0,$8DF
 dn ___,0,$000
 dn D_5,2,$201
 dn ___,0,$000
 dn ___,0,$8FD
 dn ___,0,$000

P8:
 dn F_5,1,$000
 dn ___,0,$000
 dn ___,0,$000
 dn ___,0,$000
 dn ___,0,$000
 dn ___,0,$000
 dn ___,0,$000
 dn ___,0,$000
 dn ___,0,$000
 dn ___,0,$000
 dn ___,0,$000
 dn ___,0,$000
 dn ___,0,$000
 dn ___,0,$000
 dn ___,0,$000
 dn ___,0,$000
 dn ___,0,$000
 dn ___,0,$000
 dn ___,0,$000
 dn ___,0,$000
 dn ___,0,$000
 dn ___,0,$000
 dn ___,0,$000
 dn ___,0,$000
 dn G_5,1,$000
 dn ___,0,$000
 dn ___,0,$000
 dn ___,0,$000
 dn F_5,1,$000
 dn ___,0,$000
 dn ___,0,$000
 dn ___,0,$000
 dn ___,0,$000
 dn ___,0,$000
 dn ___,0,$000
 dn ___,0,$000
 dn ___,0,$000
 dn ___,0,$000
 dn ___,0,$000
 dn ___,0,$000
 dn ___,0,$000
 dn ___,0,$000
 dn ___,0,$000
 dn ___,0,$000
 dn ___,0,$000
 dn ___,0,$000
 dn ___,0,$000
 dn ___,0,$000
 dn ___,0,$000
 dn ___,0,$000
 dn ___,0,$000
 dn ___,0,$000
 dn F_5,1,$000
 dn ___,0,$000
 dn ___,0,$000
 dn ___,0,$000
 dn D#5,1,$000
 dn ___,0,$000
 dn ___,0,$000
 dn ___,0,$000
 dn D_5,1,$000
 dn ___,0,$000
 dn ___,0,$000
 dn ___,0,$000

P9:
 dn D#5,2,$201
 dn ___,0,$000
 dn ___,0,$8DF
 dn ___,0,$000
 dn F_5,2,$201
 dn ___,0,$000
 dn ___,0,$8FD
 dn ___,0,$000
 dn ___,0,$8FF
 dn ___,0,$000
 dn ___,0,$8DF
 dn ___,0,$000
 dn ___,0,$8FF
 dn ___,0,$000
 dn ___,0,$8FD
 dn ___,0,$000
 dn ___,0,$8FF
 dn ___,0,$000
 dn ___,0,$8DF
 dn ___,0,$000
 dn ___,0,$8FF
 dn ___,0,$000
 dn ___,0,$8FD
 dn ___,0,$000
 dn ___,0,$8FF
 dn ___,0,$000
 dn ___,0,$8DF
 dn ___,0,$000
 dn G_5,2,$201
 dn ___,0,$000
 dn ___,0,$8FD
 dn ___,0,$000
 dn F_5,2,$201
 dn ___,0,$000
 dn ___,0,$8DF
 dn ___,0,$000
 dn ___,0,$8FF
 dn ___,0,$000
 dn ___,0,$8FD
 dn ___,0,$000
 dn ___,0,$8FF
 dn ___,0,$000
 dn ___,0,$8DF
 dn ___,0,$000
 dn ___,0,$8FF
 dn ___,0,$000
 dn ___,0,$8FD
 dn ___,0,$000
 dn ___,0,$8FF
 dn ___,0,$000
 dn ___,0,$8DF
 dn ___,0,$000
 dn ___,0,$8FF
 dn ___,0,$000
 dn ___,0,$8FD
 dn ___,0,$000
 dn F_5,2,$201
 dn ___,0,$000
 dn ___,0,$8DF
 dn ___,0,$000
 dn D#5,2,$201
 dn ___,0,$000
 dn ___,0,$8FD
 dn ___,0,$000

P10:
 dn D#5,1,$000
 dn ___,0,$000
 dn ___,0,$000
 dn ___,0,$000
 dn ___,0,$000
 dn ___,0,$000
 dn ___,0,$000
 dn ___,0,$000
 dn ___,0,$000
 dn ___,0,$000
 dn ___,0,$000
 dn ___,0,$000
 dn ___,0,$000
 dn ___,0,$000
 dn ___,0,$000
 dn ___,0,$000
 dn ___,0,$000
 dn ___,0,$000
 dn ___,0,$000
 dn ___,0,$000
 dn ___,0,$000
 dn ___,0,$000
 dn ___,0,$000
 dn ___,0,$000
 dn F_5,1,$000
 dn ___,0,$000
 dn ___,0,$000
 dn ___,0,$000
 dn D#5,1,$000
 dn ___,0,$000
 dn ___,0,$000
 dn ___,0,$000
 dn ___,0,$000
 dn ___,0,$000
 dn ___,0,$000
 dn ___,0,$000
 dn ___,0,$000
 dn ___,0,$000
 dn ___,0,$000
 dn ___,0,$000
 dn ___,0,$000
 dn ___,0,$000
 dn ___,0,$000
 dn ___,0,$000
 dn ___,0,$000
 dn ___,0,$000
 dn ___,0,$000
 dn ___,0,$000
 dn ___,0,$000
 dn ___,0,$000
 dn ___,0,$000
 dn ___,0,$000
 dn C_5,1,$000
 dn ___,0,$000
 dn ___,0,$000
 dn ___,0,$000
 dn D_5,1,$000
 dn ___,0,$000
 dn ___,0,$000
 dn ___,0,$000
 dn D#5,1,$000
 dn ___,0,$000
 dn ___,0,$000
 dn ___,0,$000

P11:
 dn D_5,2,$201
 dn ___,0,$000
 dn ___,0,$8DF
 dn ___,0,$000
 dn D#5,2,$201
 dn ___,0,$000
 dn ___,0,$8FD
 dn ___,0,$000
 dn ___,0,$8FF
 dn ___,0,$000
 dn ___,0,$8DF
 dn ___,0,$000
 dn ___,0,$8FF
 dn ___,0,$000
 dn ___,0,$8FD
 dn ___,0,$000
 dn ___,0,$8FF
 dn ___,0,$000
 dn ___,0,$8DF
 dn ___,0,$000
 dn ___,0,$8FF
 dn ___,0,$000
 dn ___,0,$8FD
 dn ___,0,$000
 dn ___,0,$8FF
 dn ___,0,$000
 dn ___,0,$8DF
 dn ___,0,$000
 dn F_5,2,$201
 dn ___,0,$000
 dn ___,0,$8FD
 dn ___,0,$000
 dn D#5,2,$201
 dn ___,0,$000
 dn ___,0,$8DF
 dn ___,0,$000
 dn ___,0,$8FF
 dn ___,0,$000
 dn ___,0,$8FD
 dn ___,0,$000
 dn ___,0,$8FF
 dn ___,0,$000
 dn ___,0,$8DF
 dn ___,0,$000
 dn ___,0,$8FF
 dn ___,0,$000
 dn ___,0,$8FD
 dn ___,0,$000
 dn ___,0,$8FF
 dn ___,0,$000
 dn ___,0,$8DF
 dn ___,0,$000
 dn ___,0,$8FF
 dn ___,0,$000
 dn ___,0,$8FD
 dn ___,0,$000
 dn C_5,2,$201
 dn ___,0,$000
 dn ___,0,$8DF
 dn ___,0,$000
 dn D_5,2,$201
 dn ___,0,$000
 dn ___,0,$8FD
 dn ___,0,$000

P12:
 dn D_5,1,$000
 dn ___,0,$000
 dn ___,0,$000
 dn ___,0,$000
 dn ___,0,$000
 dn ___,0,$000
 dn ___,0,$000
 dn ___,0,$000
 dn ___,0,$000
 dn ___,0,$000
 dn ___,0,$000
 dn ___,0,$000
 dn ___,0,$000
 dn ___,0,$000
 dn ___,0,$000
 dn ___,0,$000
 dn D_5,1,$C0A
 dn ___,0,$000
 dn ___,0,$000
 dn ___,0,$000
 dn ___,0,$000
 dn ___,0,$000
 dn ___,0,$000
 dn ___,0,$000
 dn ___,0,$000
 dn ___,0,$000
 dn ___,0,$000
 dn ___,0,$000
 dn ___,0,$000
 dn ___,0,$000
 dn ___,0,$000
 dn ___,0,$000
 dn D_5,1,$C04
 dn ___,0,$000
 dn ___,0,$000
 dn ___,0,$000
 dn ___,0,$000
 dn ___,0,$000
 dn ___,0,$000
 dn ___,0,$000
 dn ___,0,$000
 dn ___,0,$000
 dn ___,0,$000
 dn ___,0,$000
 dn ___,0,$000
 dn ___,0,$000
 dn ___,0,$000
 dn ___,0,$000
 dn ___,0,$000
 dn ___,0,$000
 dn ___,0,$000
 dn ___,0,$000
 dn ___,0,$000
 dn ___,0,$000
 dn ___,0,$000
 dn ___,0,$000
 dn ___,0,$000
 dn ___,0,$000
 dn ___,0,$000
 dn ___,0,$000
 dn ___,0,$000
 dn ___,0,$000
 dn ___,0,$000
 dn ___,0,$000

P13:
 dn D#5,2,$201
 dn ___,0,$000
 dn ___,0,$8DF
 dn ___,0,$000
 dn D_5,2,$201
 dn ___,0,$000
 dn ___,0,$8FD
 dn ___,0,$000
 dn ___,0,$8FF
 dn ___,0,$000
 dn ___,0,$8DF
 dn ___,0,$000
 dn ___,0,$8FF
 dn ___,0,$000
 dn ___,0,$8FD
 dn ___,0,$000
 dn ___,0,$8FF
 dn ___,0,$000
 dn ___,0,$8DF
 dn ___,0,$000
 dn D_5,2,$C02
 dn ___,0,$000
 dn ___,0,$8FD
 dn ___,0,$000
 dn ___,0,$8FF
 dn ___,0,$000
 dn ___,0,$8DF
 dn ___,0,$000
 dn ___,0,$8FF
 dn ___,0,$000
 dn ___,0,$8FD
 dn ___,0,$000
 dn ___,0,$8FF
 dn ___,0,$000
 dn ___,0,$8DF
 dn ___,0,$000
 dn D_5,2,$C01
 dn ___,0,$000
 dn ___,0,$8FD
 dn ___,0,$000
 dn ___,0,$8FF
 dn ___,0,$000
 dn ___,0,$8DF
 dn ___,0,$000
 dn ___,0,$8FF
 dn ___,0,$000
 dn ___,0,$8FD
 dn ___,0,$000
 dn ___,0,$8FF
 dn ___,0,$000
 dn ___,0,$8DF
 dn ___,0,$000
 dn ___,0,$8FF
 dn ___,0,$000
 dn ___,0,$8FD
 dn ___,0,$000
 dn ___,0,$8FF
 dn ___,0,$000
 dn ___,0,$8DF
 dn ___,0,$000
 dn ___,0,$8FF
 dn ___,0,$000
 dn ___,0,$8FD
 dn ___,0,$000

duty_instruments:
itSquareinst1:
db 8
db 64
db 247
dw 0
db 128

itSquareinst2:
db 8
db 64
db 64
dw 0
db 128



wave_instruments:
itWaveinst1:
db 0
db 32
db 0
dw 0
db 128



noise_instruments:


routines:
__hUGE_Routine_0:

__end_hUGE_Routine_0:
ret

__hUGE_Routine_1:

__end_hUGE_Routine_1:
ret

__hUGE_Routine_2:

__end_hUGE_Routine_2:
ret

__hUGE_Routine_3:

__end_hUGE_Routine_3:
ret

__hUGE_Routine_4:

__end_hUGE_Routine_4:
ret

__hUGE_Routine_5:

__end_hUGE_Routine_5:
ret

__hUGE_Routine_6:

__end_hUGE_Routine_6:
ret

__hUGE_Routine_7:

__end_hUGE_Routine_7:
ret

__hUGE_Routine_8:

__end_hUGE_Routine_8:
ret

__hUGE_Routine_9:

__end_hUGE_Routine_9:
ret

__hUGE_Routine_10:

__end_hUGE_Routine_10:
ret

__hUGE_Routine_11:

__end_hUGE_Routine_11:
ret

__hUGE_Routine_12:

__end_hUGE_Routine_12:
ret

__hUGE_Routine_13:

__end_hUGE_Routine_13:
ret

__hUGE_Routine_14:

__end_hUGE_Routine_14:
ret

__hUGE_Routine_15:

__end_hUGE_Routine_15:
ret

waves:
wave0: db 236,150,0,0,0,0,36,105,206,255,255,255,255,255,255,255

